<svg xmlns="http://www.w3.org/2000/svg" xmlns:xlink="http://www.w3.org/1999/xlink" width="1920.008" height="1627.8" viewBox="0 0 1920.008 1627.8"><defs><radialGradient id="a" cx="0.5" cy="0.5" r="0.5" gradientTransform="matrix(1, 0, 0, -1, 0, 1)" gradientUnits="objectBoundingBox"><stop offset="0" stop-color="#1c1f26"/><stop offset="1" stop-color="#121419" stop-opacity="0"/></radialGradient></defs><path d="M0,1627.288q960.047-.709,1920,0v.1L0,1627.8Zm960-23.66c-320-5.864-640-11.729-960,0v-.814c320-12.137,640-6.069,960,0s640,12.137,960,0v.814c-135.234,4.956-270.5,6.771-405.729,6.771-184.765,0-369.5-3.385-554.271-6.771Zm-.362-23.946C639.761,1568.35,319.881,1557.017,0,1579.658v-1.729c319.988-23.458,639.953-11.728,959.93,0,320,11.731,640.011,23.461,960.07,0v1.729c-135.364,9.6-270.734,13.115-406.1,13.116-184.754,0-369.5-6.546-554.258-13.092Zm.6-24.222c-320.08-16.519-640.159-33.039-960.24.025v-1.729c319.991-33.713,639.983-16.856,959.974,0,320.008,16.859,640.015,33.718,960.026,0v1.729c-135.162,13.941-270.339,19.044-405.5,19.045-184.757,0-369.5-9.53-554.258-19.07Zm-.432-23.509c-319.937-21.183-639.871-42.368-959.808-.024v-3.348c320.006-43.674,640.011-21.839,960.016,0s639.987,43.67,959.984,0v3.348c-135.3,17.928-270.633,24.49-405.934,24.491-184.764,0-369.494-12.233-554.256-24.467Zm.33-23.817c-320.045-25.61-640.092-51.22-960.138.022v-4.162c319.948-52.6,639.9-26.287,959.845.024,320.05,26.321,640.1,52.641,960.155-.024v4.162c-135.2,21.627-270.41,29.544-405.6,29.545-184.757,0-369.493-14.782-554.255-29.566Zm-.127-24.142C640.007,1454.287,320,1424.58,0,1484v-4.675c320-60.933,640-30.467,960,0s640,60.933,960,0V1484c-135.233,25.106-270.5,34.3-405.732,34.3-184.768,0-369.494-17.155-554.257-34.307ZM960,1460.226c-320-33.412-640-66.825-960,0v-5.581c320.043-68.513,640.084-34.27,960.126-.028,319.956,34.234,639.913,68.468,959.873.028v5.581c-135.235,28.241-270.511,38.579-405.746,38.581C1329.488,1498.81,1144.763,1479.518,960,1460.226Zm.011-23.864c-320-36.79-640.005-73.58-960.008,0v-6.606c320-75.356,640-37.678,960,0s640,75.356,960,0v6.606c-135.234,31.094-270.5,42.476-405.734,42.478-184.769.006-369.5-21.24-554.261-42.478Zm0-24.071c-320-39.862-640-79.724-960.007,0v-7.421c320-81.243,639.991-40.621,959.987,0s640.007,81.247,960.013,0v7.421c-135.234,33.69-270.5,46.023-405.736,46.025-184.768.006-369.5-23.01-554.261-46.025ZM960,1388.524c-320-42.527-640-85.054-960,0V1380.1c319.969-86.771,639.937-43.373,959.9.024,320.03,43.407,640.061,86.813,960.095-.024v8.427c-135.235,35.944-270.51,49.1-405.744,49.106C1329.49,1437.634,1144.764,1413.079,960,1388.524Zm0-23.759c-320-44.863-640-89.725-960,0v-9.452c320-91.4,640-45.7,960,0s640,91.4,960,.005v9.442c-135.235,37.918-270.511,51.8-405.746,51.8C1329.488,1416.571,1144.763,1390.668,960,1364.765Zm-.094-23.642c-319.968-46.877-639.936-93.756-959.9-.027V1330.94c319.969-95.146,639.937-47.56,959.906.027,320.03,47.6,640.06,95.191,960.094-.027v10.16c-135.268,39.647-270.57,54.159-405.838,54.162-184.768,0-369.5-27.071-554.268-54.14Zm.1-23.991c-320-48.519-640-97.038-960.006,0v-10.969c320.027-98.366,640.054-49.2,960.08-.026,319.972,49.162,639.944,98.324,959.919.026v10.969c-135.234,41.007-270.5,56.019-405.737,56.022-184.762.005-369.492-28.009-554.256-56.023ZM960,1293.364c-320-49.839-640-99.679-960,0v-12.187c320.027-100.8,640.052-50.414,960.078-.025,319.972,50.38,639.946,100.761,959.922.025v12.187c-135.235,42.125-270.51,57.546-405.744,57.549C1329.49,1350.918,1144.764,1322.141,960,1293.364Zm-.008-24.471c-320-50.778-639.994-101.556-959.99,0v-12.9c320-102.418,639.994-51.208,959.99,0s640,102.423,960.009,0v12.9c-135.236,42.92-270.516,58.632-405.752,58.636-184.769,0-369.492-29.317-554.259-58.636Zm.007-23.159c-320-51.439-640-102.877-960,0v-14.017c320.026-103.343,640.05-51.684,960.075-.025,319.973,51.65,639.948,103.3,959.925.025v14.017c-135.235,43.476-270.51,59.392-405.745,59.4-184.765,0-369.491-29.7-554.254-59.4Zm-.077-24.549c-319.973-51.726-639.947-103.451-959.92-.024v-14.318c320.026-103.494,640.05-51.76,960.076-.025,319.973,51.726,639.947,103.451,959.924.025v14.318c-135.266,43.743-270.556,59.755-405.821,59.757-184.764,0-369.5-29.866-554.261-59.733Zm.156-23.306C640.05,1146.219,320.026,1094.56,0,1197.9v-16.048c320-102.877,640-51.439,960,0s640,102.876,960,0V1197.9c-135.2,43.638-270.463,59.616-405.667,59.62-184.771.01-369.487-29.82-554.257-59.642ZM960,1174.037c-320-51.262-640-102.524-960,0v-16.752c320-101.56,640-50.78,960,0s640,101.56,960,0v16.762c-135.235,43.326-270.5,59.186-405.735,59.188C1329.5,1233.234,1144.763,1203.636,960,1174.037Zm.008-24.069c-320-50.5-640-101-960.006,0V1132.7c320-99.53,640-49.766,960.007,0s639.994,99.525,959.993,0v17.264c-135.234,42.681-270.5,58.306-405.737,58.309-184.765.007-369.495-29.151-554.259-58.308ZM960,1125.7c-320-49.407-640-98.814-960,0v-17.778c320.138-96.775,640.275-48.451,960.413-.126,319.861,48.283,639.723,96.565,959.586.126V1125.7c-135.235,41.759-270.509,57.047-405.744,57.05C1329.49,1182.753,1144.764,1154.226,960,1125.7Zm.007-23.46c-320-47.986-640-95.972-960.006,0v-19.2c320.029-93.189,640.057-46.607,960.086-.026,319.97,46.573,639.941,93.146,959.914.026v19.2c-135.234,40.557-270.5,55.4-405.737,55.406-184.764.005-369.494-27.7-554.258-55.408Zm-.09-23.945C639.944,1032.1,319.973,985.91,0,1078.27v-19.6c320.033-88.976,640.066-44.5,960.1-.028,319.965,44.465,639.932,88.929,959.9.028v19.6c-135.267,39.064-270.561,53.363-405.827,53.365-184.762,0-369.5-26.669-554.257-53.341Zm.174-24.221C640.059,1010.005,320.03,965.938,0,1054.1v-20.311c320-83.885,640-41.943,959.993,0s640,83.887,960.007,0V1054.1c-135.2,37.223-270.452,50.851-405.654,50.854-184.768,0-369.489-25.439-554.257-50.881Zm.01-23.661c-320.034-41.579-640.066-83.159-960.1.027v-21.025c320-78.25,640-39.127,960,0s640,78.249,960,0v21.025c-135.2,35.12-270.442,47.978-405.643,47.98-184.767,0-369.493-24-554.258-48.008Zm-.2-24.121c-319.965-38.727-639.93-77.455-959.9-.024V984.94c320.037-71.861,640.074-35.943,960.111-.026,319.962,35.91,639.924,71.819,959.889.026v21.326c-135.27,32.755-270.579,44.746-405.847,44.748-184.768,0-369.493-22.36-554.254-44.723Zm.094-23.993C639.993,946.752,320,911.207,0,982.3V960.567c320-64.745,640-32.373,960,0s640,64.743,960,0V982.3c-135.237,30.045-270.517,41.044-405.753,41.046-184.768,0-369.492-20.524-554.258-41.046Zm.019-23.865c-320-32.041-640-64.083-960.008,0V935.983c320.045-56.878,640.091-28.449,960.136-.02,319.953,28.421,639.907,56.841,959.864.03v22.442c-135.234,27.08-270.5,36.994-405.734,37-184.772,0-369.5-18.5-554.264-37Zm.153-24.4c-320.054-28.1-640.107-56.2-960.161.029V911.208c320.056-48.2,640.112-24.112,960.168-.026,319.943,24.078,639.886,48.155,959.832.026v22.855c-135.193,23.724-270.391,32.409-405.583,32.41-184.761,0-369.509-16.22-554.262-32.439Zm-.335-24.121c-319.948-23.849-639.89-47.7-959.832-.026V886.936c320-38.948,640-19.474,960,0s640,38.948,960,0v22.951c-135.3,20.181-270.616,27.568-405.914,27.569-184.761,0-369.5-13.771-554.26-27.543ZM960,885.919c-320-19.271-640-38.541-960,0V862.258c320.09-28.851,640.18-14.438,960.27-.025,319.909,14.405,639.817,28.81,959.729.025V885.92c-135.235,16.288-270.509,22.25-405.744,22.251C1329.49,908.172,1144.763,897.046,960,885.919Zm-.01-24.169C639.99,847.455,320,833.16,0,861.75V837.985c320-18.179,640-9.09,959.994,0s640,18.179,960.006,0V861.75c-135.237,12.082-270.514,16.505-405.75,16.506-184.77,0-369.5-8.256-554.264-16.506Zm.464-24.3C640.3,828.5,320.151,819.544,0,837.477V799.9H.006V0h1920V800H1920v37.477c-135.093,7.545-270.2,10.308-405.288,10.308-184.757,0-369.5-5.167-554.26-10.334Z" transform="translate(0.002)" fill="url(#a)"/></svg>