<svg width="1914" height="1714" viewBox="0 0 1914 1714" fill="none" xmlns="http://www.w3.org/2000/svg">
<rect y="-519" width="1913.5" height="1408.9" fill="url(#paint0_linear_1421_93)"/>
<path fill-rule="evenodd" clip-rule="evenodd" d="M1.99421 1147.26C638.499 970.299 1275 1324.11 1911.51 1147.26L1911.51 1166.75C1275 1350.57 638.499 983.025 1.99421 1166.75L1.99421 1147.26ZM1.99421 1196.24C638.499 1003.83 1275 1388.15 1911.51 1196.24L1911.51 1213.92C1275 1410.47 638.499 1017.37 1.9942 1213.92L1.99421 1196.24ZM1.99421 1171.5C638.499 986.157 1275 1356.74 1911.51 1171.5L1911.51 1190.59C1275 1381.48 638.499 999.691 1.99421 1190.59L1.99421 1171.5ZM1.99422 1098.27C638.499 942.624 1275 1253.91 1911.51 1098.27L1911.51 1119.18C1275 1284.52 638.499 953.735 1.99422 1119.18L1.99422 1098.27ZM1.99422 1122.51C638.499 955.654 1275 1289.37 1911.51 1122.51L1911.51 1142.71C1275 1317.95 638.499 967.37 1.99421 1142.71L1.99422 1122.51ZM1.9942 1269.77C638.499 1065.14 1275 1474.4 1911.51 1269.77L1911.51 1285.73C1275 1491.17 638.499 1080.19 1.9942 1285.73L1.9942 1269.77ZM1.9942 1220.89C638.499 1022.92 1275 1418.85 1911.51 1220.89L1911.51 1238.06C1275 1438.95 638.499 1037.16 1.9942 1238.06L1.9942 1220.89ZM1.9942 1245.33C638.499 1043.32 1275 1447.34 1911.51 1245.33L1911.51 1262C1275 1465.92 638.499 1058.07 1.9942 1261.99L1.9942 1245.33ZM1.99425 889.901L1911.51 889.901L1911.51 927.272C1275 962.825 638.499 891.618 1.99424 927.272L1.99425 889.901ZM1.99424 951.917C638.499 894.547 1275 1009.19 1911.51 951.917L1911.51 975.45C1275 1052.11 638.499 898.789 1.99423 975.45L1.99424 951.917ZM1.99419 1294.62C638.499 1088.78 1275 1500.36 1911.51 1294.62L1911.51 1308.86C1275 1514.7 638.499 1103.12 1.99419 1308.86L1.99419 1294.62ZM1.99414 1713.28L1.99414 1712.77C638.531 1712.3 1275.04 1712.3 1911.51 1712.77L1911.51 1712.87L1.99414 1713.28ZM1.99423 976.46C638.499 898.991 1275 1053.93 1911.51 976.461L1911.51 999.287C1275 1094.23 638.499 904.445 1.99423 999.287L1.99423 976.46ZM1.99424 927.777C638.499 891.618 1275 963.936 1911.51 927.777L1911.51 951.412C1275 1008.28 638.499 894.547 1.99424 951.411L1.99424 927.777ZM1.99423 1000.6C638.499 904.748 1275 1096.35 1911.51 1000.6L1911.51 1023.33C1275 1135.03 638.499 911.516 1.99423 1023.33L1.99423 1000.6ZM1.99423 1049.69C638.499 920.909 1275 1178.47 1911.51 1049.69L1911.51 1071.3C1275 1212.71 638.499 929.898 1.99422 1071.3L1.99423 1049.69ZM1.99423 1025.24C638.499 912.122 1275 1138.27 1911.51 1025.25L1911.51 1047.57C1275 1175.03 638.499 920.101 1.99423 1047.57L1.99423 1025.24ZM1.99422 1073.93C638.499 931.009 1275 1216.75 1911.51 1073.93L1911.51 1095.14C1275 1249.27 638.499 941.109 1.99422 1095.14L1.99422 1073.93ZM1.99416 1590.15C638.499 1485.51 1275 1694.89 1911.51 1590.15L1911.51 1594.29C1275 1696.11 638.499 1492.38 1.99416 1594.29L1.99416 1590.15ZM1.99417 1516.32C638.499 1366.43 1275 1666.21 1911.51 1516.32L1911.51 1522.89C1275 1669.24 638.499 1376.53 1.99416 1522.89L1.99417 1516.32ZM1.99415 1614.6C638.499 1527.73 1275 1701.46 1911.51 1614.6L1911.51 1617.93C1275 1702.27 638.499 1533.69 1.99415 1617.93L1.99415 1614.6ZM1.99416 1541.07C638.499 1404.81 1275 1677.22 1911.51 1541.07L1911.51 1546.62C1275 1679.54 638.499 1413.7 1.99416 1546.62L1.99416 1541.07ZM1.99416 1565.61C638.499 1444.41 1275 1686.81 1911.51 1565.61L1911.51 1570.26C1275 1688.43 638.499 1452.08 1.99416 1570.26L1.99416 1565.61ZM1.99415 1639.64C638.499 1572.58 1275 1706.71 1911.51 1639.64L1911.51 1641.36C1275 1707.01 638.499 1575.61 1.99415 1641.36L1.99415 1639.64ZM1.99414 1688.43C638.499 1664.29 1275 1712.57 1911.51 1688.43L1911.51 1689.24C1275 1712.57 638.499 1665.91 1.99414 1689.24L1.99414 1688.43ZM1.99415 1663.68C638.499 1617.02 1274.91 1710.35 1911.51 1663.68L1911.51 1665.4C1275 1710.55 638.499 1620.35 1.99415 1665.4L1.99415 1663.68ZM1.99418 1442.28C638.499 1260.48 1275 1624.09 1911.51 1442.29L1911.51 1451.68C1275 1630.15 638.499 1273.21 1.99417 1451.68L1.99418 1442.28ZM1.99418 1368.55C638.499 1168.06 1275 1568.94 1911.51 1368.55L1911.51 1380.67C1275 1578.94 638.499 1182.4 1.99418 1380.67L1.99418 1368.55ZM1.99418 1393.4C638.499 1197.76 1275 1588.94 1911.51 1393.4L1911.51 1404.31C1275 1597.32 638.499 1211.29 1.99418 1404.31L1.99418 1393.4ZM1.99417 1491.57C638.499 1329.97 1275 1653.18 1911.51 1491.57L1911.51 1498.95C1275 1657.52 638.499 1340.37 1.99417 1498.95L1.99417 1491.57ZM1.99419 1343.5C638.499 1139.78 1275 1547.23 1911.51 1343.5L1911.51 1356.33C1275 1558.34 638.499 1154.33 1.99419 1356.33L1.99419 1343.5ZM1.99418 1418.04C638.499 1228.77 1275 1607.42 1911.51 1418.04L1911.51 1428.14C1275 1614.7 638.499 1241.69 1.99418 1428.14L1.99418 1418.04ZM1.99417 1466.93C638.499 1294.32 1275 1639.64 1911.51 1466.93L1911.51 1475.31C1275 1644.49 638.499 1306.13 1.99417 1475.31L1.99417 1466.93ZM1.99419 1319.36C638.499 1113.82 1275 1524.8 1911.51 1319.36L1911.51 1333.3C1275 1537.93 638.499 1128.67 1.99419 1333.3L1.99419 1319.36Z" fill="#1F1F1F"/>
<defs>
<linearGradient id="paint0_linear_1421_93" x1="956.75" y1="-519" x2="956.75" y2="889.9" gradientUnits="userSpaceOnUse">
<stop stop-color="#1F1F1F" stop-opacity="0"/>
<stop offset="1" stop-color="#1F1F1F"/>
</linearGradient>
</defs>
</svg>
