<svg width="20" height="21" viewBox="0 0 20 21" fill="none" xmlns="http://www.w3.org/2000/svg">
<path d="M17.5 8.40918L17.5 3.40918M17.5 3.40918H12.5M17.5 3.40918L10.8333 10.0758M8.33333 5.07585H6.5C5.09987 5.07585 4.3998 5.07585 3.86502 5.34833C3.39462 5.58801 3.01217 5.97046 2.77248 6.44087C2.5 6.97565 2.5 7.67572 2.5 9.07585V14.4092C2.5 15.8093 2.5 16.5094 2.77248 17.0442C3.01217 17.5146 3.39462 17.897 3.86502 18.1367C4.3998 18.4092 5.09987 18.4092 6.5 18.4092H11.8333C13.2335 18.4092 13.9335 18.4092 14.4683 18.1367C14.9387 17.897 15.3212 17.5146 15.5608 17.0442C15.8333 16.5094 15.8333 15.8093 15.8333 14.4092V12.5758" stroke="white" stroke-width="1.5" stroke-linecap="round" stroke-linejoin="round"/>
</svg>
