<svg width="59" height="59" viewBox="0 0 59 59" fill="none" xmlns="http://www.w3.org/2000/svg">
<rect width="59" height="59" rx="10" fill="#121419" fill-opacity="0.2"/>
<g clip-path="url(#clip0_1994_684)">
<path d="M30.0005 11.9521C30.0005 11.9521 27.4443 16.5565 15.8721 16.5565C15.8721 16.5565 15.8721 25.5634 15.8721 30.9172C15.8721 36.271 26.2708 45.3916 30.0005 46.6359C33.732 45.3916 44.129 36.2726 44.129 30.918C44.129 25.5634 44.129 16.5573 44.129 16.5573C32.5568 16.5565 30.0005 11.9521 30.0005 11.9521ZM30.0005 37.9361C25.0734 37.9361 21.0776 33.9412 21.0776 29.0132C21.0776 24.0844 25.0734 20.0903 30.0005 20.0903C34.9294 20.0903 38.9243 24.0844 38.9243 29.0132C38.9243 33.9412 34.9294 37.9361 30.0005 37.9361Z" fill="#121419"/>
<path d="M29.461 31.1167L25.8185 27.1613L24.001 28.8347L28.6309 33.8623C28.8656 34.1168 29.1958 34.2609 29.54 34.2609C29.5573 34.2609 29.5738 34.2609 29.5911 34.2601C29.9543 34.2453 30.2927 34.0715 30.5151 33.7849L36.0657 26.6564L34.1164 25.1387L29.461 31.1167Z" fill="#121419"/>
</g>
<defs>
<clipPath id="clip0_1994_684">
<rect width="28" height="34.5882" fill="white" transform="translate(16 12)"/>
</clipPath>
</defs>
</svg>
