<svg width="59" height="59" viewBox="0 0 59 59" fill="none" xmlns="http://www.w3.org/2000/svg">
<rect width="59" height="59" rx="10" fill="white" fill-opacity="0.4"/>
<g clip-path="url(#clip0_1994_648)">
<path d="M44.9475 20.7593L29.3595 11.7598L13.7724 20.7588L13.771 20.7598V38.7602L29.3595 47.7598L29.36 47.7593L44.9484 38.7602V20.7598L44.9475 20.7593ZM43.5939 37.9778L29.36 46.195V40.4441L20.1065 35.1026V24.4178L20.1075 24.4169L24.7736 27.1106L29.36 24.463L33.9464 27.1111L33.9473 27.1116V32.4084L29.36 35.0561V40.4441L38.6134 35.1026V24.4178L38.6124 24.4174L38.612 24.4169L29.36 19.075L20.1075 24.4169L15.127 21.5412L29.3595 13.3236L43.5924 21.5412L43.5939 21.5422V37.9778Z" fill="white"/>
<path d="M24.7725 27.1118V32.4086L29.3598 35.0568V35.0563V29.76L24.7729 27.1113L24.7725 27.1118Z" fill="white"/>
</g>
<defs>
<clipPath id="clip0_1994_648">
<rect width="30.72" height="36" fill="white" transform="translate(14 12)"/>
</clipPath>
</defs>
</svg>
