<svg width="44" height="39" viewBox="0 0 44 39" fill="none" xmlns="http://www.w3.org/2000/svg">
<g clip-path="url(#clip0_2004_57)">
<path d="M43.8111 21.3279L37.4571 4.52868C37.8125 4.04459 38.025 3.44887 38.025 2.80293C38.025 1.18687 36.7146 -0.12207 35.099 -0.12207C33.9198 -0.12207 32.9053 0.57798 32.4431 1.58467H27.4219L27.7875 -0.12207H16.0875L16.4531 1.58467H11.4319C10.9692 0.57798 9.95475 -0.12207 8.77402 -0.12207C7.15942 -0.12207 5.85 1.18687 5.85 2.80293C5.85 3.44838 6.06206 4.04362 6.41648 4.5277L0.0497251 21.3279H0C0 25.9041 3.92925 28.6404 8.77549 28.6404C13.6227 28.6404 17.55 25.9041 17.55 21.3279H17.4861L11.1321 4.52868C11.2476 4.37073 11.348 4.20157 11.4309 4.02217H16.9757L17.55 6.70293H19.9875V32.2967H12.8973V35.7092H10.4598V39.1217H33.3723V35.7092H30.9348V32.2967H23.8875V6.70293H26.325L26.8993 4.02217H32.4436C32.526 4.20157 32.6259 4.37024 32.7415 4.5277L26.3747 21.3279H26.325C26.325 25.9041 30.2543 28.6404 35.1005 28.6404C39.9477 28.6404 43.875 25.9041 43.875 21.3279H43.8111ZM1.5093 21.3279L7.52846 5.44616C7.90676 5.62507 8.32796 5.72793 8.77402 5.72793C9.22009 5.72793 9.64129 5.62507 10.0201 5.44616L16.0271 21.3279H1.5093ZM27.8343 21.3279L33.8535 5.44616C34.2318 5.62507 34.653 5.72793 35.099 5.72793C35.5451 5.72793 35.9663 5.62507 36.3451 5.44616L42.3521 21.3279H27.8343Z" fill="white"/>
</g>
<defs>
<clipPath id="clip0_2004_57">
<rect width="43.875" height="39" fill="white"/>
</clipPath>
</defs>
</svg>
