<svg width="59" height="59" viewBox="0 0 59 59" fill="none" xmlns="http://www.w3.org/2000/svg">
<rect width="59" height="59" rx="10" fill="#121419" fill-opacity="0.2"/>
<g clip-path="url(#clip0_1994_689)">
<path d="M29.8414 29.6102C27.9405 29.6102 26.3563 31.1944 26.3563 33.0953C26.3563 34.9963 27.9405 36.5804 29.8414 36.5804C31.7424 36.5804 33.3266 34.9963 33.3266 33.0953C33.3266 31.1944 31.7424 29.6102 29.8414 29.6102ZM39.8532 19.2182H19.4495C19.196 20.6756 17.992 21.8796 16.5346 22.133V32.3983C18.1188 32.6518 19.3861 34.0458 19.5128 35.6933H25.8494C25.3425 34.9329 25.089 34.0458 25.089 33.1587C25.089 30.5607 27.2434 28.4063 29.8414 28.4063C32.4394 28.4063 34.5939 30.5607 34.5939 33.1587C34.5939 34.1092 34.3404 34.9963 33.8335 35.6933H39.7899C39.9166 33.8557 41.374 32.3983 43.1482 32.3349V22.1964C41.5007 22.0697 40.1067 20.8024 39.8532 19.2182ZM37.7622 25.4914H21.9207C21.6039 25.4914 21.2871 25.1746 21.2871 24.8578C21.2871 24.5409 21.6039 24.2241 21.9207 24.2241H37.7622C38.079 24.2241 38.3958 24.5409 38.3958 24.8578C38.3958 25.1746 38.079 25.4914 37.7622 25.4914ZM37.7622 22.64H21.9207C21.6039 22.64 21.2871 22.3231 21.2871 22.0063C21.2871 21.6895 21.6039 21.3727 21.9207 21.3727H37.7622C38.079 21.3727 38.3958 21.6895 38.3958 22.0063C38.3958 22.3231 38.079 22.64 37.7622 22.64ZM29.8414 37.8478C29.0811 37.8478 28.3207 37.6577 27.687 37.3408V42.6636L29.4612 41.3329C29.7147 41.1428 29.9682 41.1428 30.2216 41.3329L31.9959 42.6636V37.3408C31.3622 37.6577 30.6018 37.8478 29.8414 37.8478ZM14 16.6836V38.228H26.4197V36.9606H18.8158C18.6257 36.9606 18.4356 36.8973 18.3089 36.7705C18.1821 36.6438 18.1188 36.4537 18.1821 36.2636C18.1821 36.1369 18.1821 36.0102 18.1821 35.9468C18.1821 34.6795 17.1683 33.6023 15.8376 33.6023C15.5208 33.6023 15.2039 33.2854 15.2039 32.9686V21.5628C15.2039 21.2459 15.5208 20.9291 15.8376 20.9291C17.1049 20.9291 18.1821 19.8519 18.1821 18.5846C18.1821 18.2677 18.499 17.9509 18.8158 17.9509H40.3602C40.677 17.9509 40.9938 18.2677 40.9938 18.5846C40.9938 19.8519 42.0077 20.9291 43.3383 20.9291C43.4651 20.9291 43.5918 20.9291 43.6552 20.9291C43.8453 20.9291 44.0354 20.9291 44.1621 21.0558C44.2888 21.1826 44.3522 21.3727 44.3522 21.5628V33.032C44.3522 33.2221 44.2888 33.4122 44.1621 33.5389C44.0354 33.6656 43.8453 33.729 43.6552 33.6656C43.5284 33.6656 43.4651 33.6656 43.3383 33.6656C42.071 33.6656 40.9938 34.6795 40.9938 36.0101C40.9938 36.1369 40.9938 36.2636 40.9938 36.327C40.9938 36.5171 40.9304 36.7072 40.8671 36.8339C40.7404 36.9606 40.5503 37.024 40.3602 37.024H33.2632V38.2913H45.6829V16.747H14V16.6836Z" fill="#121419"/>
</g>
<defs>
<clipPath id="clip0_1994_689">
<rect width="31.6829" height="25.98" fill="white" transform="translate(14 17)"/>
</clipPath>
</defs>
</svg>
