<svg width="59" height="59" viewBox="0 0 59 59" fill="none" xmlns="http://www.w3.org/2000/svg">
<rect width="59" height="59" rx="10" fill="white" fill-opacity="0.4"/>
<path d="M45.7036 22.1343C45.7933 22.0853 45.8681 22.0131 45.9203 21.9252C45.9724 21.8373 45.9999 21.7371 45.9999 21.6349V16.4138C45.9999 16.3232 45.9783 16.234 45.9368 16.1534C45.8954 16.0729 45.8353 16.0034 45.7615 15.9508L41.7776 13.106C41.6811 13.0371 41.5654 13 41.4468 13C41.3282 13 41.2125 13.0371 41.116 13.106L37.1321 15.9508C37.0584 16.0035 36.9984 16.0729 36.9569 16.1535C36.9155 16.234 36.8939 16.3233 36.8939 16.4138V18.6897H22.1061V16.4138C22.1061 16.3232 22.0844 16.234 22.043 16.1534C22.0015 16.0729 21.9414 16.0034 21.8677 15.9508L17.8838 13.106C17.7872 13.0371 17.6716 13 17.553 13C17.4343 13 17.3187 13.0371 17.2222 13.106L13.2383 15.9508C13.1645 16.0035 13.1045 16.0729 13.063 16.1535C13.0216 16.234 13 16.3232 13 16.4138V21.6349C13 21.7371 13.0275 21.8373 13.0796 21.9252C13.1318 22.0131 13.2066 22.0853 13.2963 22.1343L16.9839 24.1479V34.8969L13.2384 37.5715C13.1647 37.6241 13.1046 37.6936 13.0631 37.7741C13.0216 37.8546 13 37.9439 13 38.0345V43.2556C13 43.3577 13.0275 43.458 13.0796 43.5459C13.1318 43.6337 13.2066 43.706 13.2963 43.7549L17.2802 45.9304C17.3639 45.9761 17.4577 46 17.553 46C17.6484 46 17.7422 45.9761 17.8259 45.9304L21.8098 43.7549C21.8995 43.706 21.9743 43.6337 22.0264 43.5459C22.0786 43.458 22.1061 43.3577 22.1061 43.2556V41.4483H36.8939V43.2556C36.8939 43.3577 36.9214 43.458 36.9736 43.5459C37.0257 43.6337 37.1005 43.706 37.1902 43.7549L41.1741 45.9304C41.2578 45.9761 41.3516 46 41.447 46C41.5423 46 41.6361 45.9761 41.7198 45.9304L45.7037 43.7549C45.7934 43.706 45.8682 43.6337 45.9204 43.5459C45.9725 43.458 46 43.3577 46 43.2556V38.0345C46 37.9439 45.9784 37.8546 45.9369 37.7741C45.8954 37.6936 45.8353 37.6241 45.7616 37.5715L42.0161 34.8968V24.1479L45.7036 22.1343ZM37.4463 37.347L33.458 34.7828L34.9033 33.9801C34.992 33.9308 35.066 33.8587 35.1174 33.7713C35.1689 33.6838 35.1961 33.5842 35.1961 33.4828V27.7931C35.1961 27.6994 35.1729 27.6072 35.1287 27.5247C35.0845 27.4421 35.0206 27.3717 34.9427 27.3197L33.012 26.0332L37.465 22.2845L40.8775 24.1478V34.8969L37.4463 37.347ZM21.5539 37.347L18.1222 34.8969V24.1479L21.4721 22.3186L25.9896 26.0382L24.0666 27.3199C23.9887 27.3718 23.9249 27.4422 23.8807 27.5248C23.8366 27.6073 23.8135 27.6995 23.8135 27.7931V33.4828C23.8135 33.5842 23.8406 33.6838 23.8921 33.7713C23.9436 33.8587 24.0175 33.9308 24.1062 33.9801L25.5504 34.7823L21.5539 37.347ZM24.9517 33.148V28.8562L28.9356 31.5114V35.3603L24.9517 33.148ZM40.8778 22.8512L38.0322 21.2973V17.5194L40.8778 19.5514V22.8512ZM36.8939 19.8276V21.2778L32.026 25.3759L29.8206 23.9059C29.7271 23.8436 29.6173 23.8103 29.5049 23.8103C29.3926 23.8103 29.2827 23.8436 29.1893 23.9059L26.9793 25.3786L22.1061 21.3664V19.8276H36.8939ZM14.1383 21.2974V17.5194L16.9839 19.5514V22.8514L14.1383 21.2974ZM14.1383 39.1401L16.9839 41.1721V44.4721L14.1383 42.918V39.1401ZM22.1061 40.3103V38.3453L26.6805 35.4097L29.2286 36.825C29.3131 36.872 29.4083 36.8966 29.505 36.8966C29.6017 36.8966 29.6968 36.872 29.7814 36.825L32.3291 35.4101L36.894 38.3453V40.3103H22.1061ZM38.0322 39.14L40.8874 41.1789V44.4772L38.0322 42.918V39.14Z" fill="white"/>
</svg>
