<svg width="59" height="59" viewBox="0 0 59 59" fill="none" xmlns="http://www.w3.org/2000/svg">
<rect width="59" height="59" rx="10" fill="white" fill-opacity="0.4"/>
<g clip-path="url(#clip0_1994_653)">
<path d="M42.0615 22.5646V26.5751L46.9027 23.0935V19.083L42.0615 22.5646Z" fill="white"/>
<path d="M41.3012 13.9678L36.2427 17.5998L41.3012 21.2387L46.3598 17.5998L41.3012 13.9678Z" fill="white"/>
<path d="M35.7002 23.0935L40.5414 26.5751V22.5646L35.7002 19.083V23.0935Z" fill="white"/>
<path d="M19.4585 48.0307L24.2997 44.5552V40.5439L19.4585 44.0194V48.0307Z" fill="white"/>
<path d="M13.0977 44.5552L17.9389 48.0307V44.0194L13.0977 40.5439V44.5552Z" fill="white"/>
<path d="M18.699 35.4238L13.6396 39.062L18.699 42.6947L23.7583 39.062L18.699 35.4238Z" fill="white"/>
<path d="M26.8822 34.935C26.3257 35.0743 25.7486 34.9153 25.3426 34.5085C24.7103 33.8762 24.7103 32.8473 25.3426 32.215L27.6118 29.9467C28.2235 29.335 29.2898 29.3341 29.9053 29.9477C30.2776 30.319 30.4459 30.8531 30.3552 31.375C30.2673 31.8838 30.6087 32.3693 31.1166 32.4563C31.6348 32.5442 32.1109 32.2028 32.1978 31.694C32.3915 30.5734 32.0285 29.4248 31.2269 28.6251C29.9072 27.3044 27.6062 27.3053 26.2883 28.6241L24.0191 30.8924C22.6582 32.2533 22.6572 34.4682 24.0191 35.831C24.6795 36.4914 25.5793 36.8525 26.4959 36.8525C26.7756 36.8525 27.0581 36.8188 27.334 36.7496C27.8353 36.6242 28.1403 36.1173 28.0149 35.6159C27.8915 35.1136 27.3798 34.8087 26.8822 34.935Z" fill="white"/>
<path d="M32.6631 25.7969C32.1627 25.9232 31.8578 26.4311 31.9831 26.9324C32.1085 27.4338 32.6182 27.734 33.1177 27.6124C33.6733 27.4721 34.2504 27.6321 34.6564 28.0371C35.2887 28.6703 35.2887 29.6983 34.6573 30.3306L32.3872 32.5997C32.0823 32.9056 31.6745 33.074 31.2423 33.074C30.8093 33.074 30.4014 32.9056 30.0937 32.5979C29.7214 32.2275 29.554 31.6934 29.6447 31.1715C29.7336 30.6626 29.3922 30.1781 28.8834 30.0902C28.3773 30.0079 27.89 30.3427 27.8012 30.8506C27.6066 31.9721 27.9686 33.1207 28.7711 33.9214C29.4305 34.5818 30.3079 34.9456 31.2414 34.9447C32.1749 34.9447 33.0522 34.5808 33.7107 33.9214L35.9799 31.6532C37.3399 30.2932 37.3399 28.0782 35.979 26.7145C35.1156 25.8512 33.8454 25.5004 32.6631 25.7969Z" fill="white"/>
</g>
<defs>
<clipPath id="clip0_1994_653">
<rect width="38" height="35.72" fill="white" transform="translate(11 12)"/>
</clipPath>
</defs>
</svg>
