<svg width="59" height="59" viewBox="0 0 59 59" fill="none" xmlns="http://www.w3.org/2000/svg">
<rect width="59" height="59" rx="10" fill="#121419" fill-opacity="0.2"/>
<g clip-path="url(#clip0_1994_696)">
<path d="M17.7317 45.4083H12.7554V30.8057H17.7317V45.4083ZM45.4685 35.5372L38.1264 41.6557C36.3317 43.1241 34.0475 43.9399 31.6817 43.7767L19.5264 42.9609V34.0688L23.9317 31.9478C25.5633 31.132 27.5212 31.3767 28.908 32.5188L30.2948 33.6609C30.458 33.8241 30.6212 33.8241 30.8659 33.8241H34.7817C35.3527 33.8241 35.9238 34.3136 35.9238 34.9662C35.9238 35.5372 35.4343 36.1083 34.7817 36.1083H28.0922C27.6027 36.1083 27.1948 36.5162 27.1948 37.0057C27.1948 37.4951 27.6027 37.903 28.0922 37.903H34.7817C35.4343 37.903 36.0054 37.6583 36.4948 37.332L43.7554 33.1715C44.3264 32.8451 45.0606 32.9267 45.5501 33.4162C45.7948 33.7425 45.958 34.0688 45.958 34.4767C45.958 34.8846 45.7133 35.2925 45.4685 35.5372Z" fill="black"/>
<path d="M37.9629 19.7112H42.6945L34.8629 28.4401L37.9629 19.7112ZM32.4156 29.7454L28.8261 19.7112H36.0866L32.4156 29.7454ZM26.8682 19.7112L29.9682 28.4401L22.1366 19.7112H26.8682ZM43.5103 17.8349H38.0445L37.1472 13.5928H42.205L43.5103 17.8349ZM35.2708 13.5928L36.1682 17.8349H28.5814L29.4787 13.5928H35.2708ZM22.5445 13.5928H27.6024L26.705 17.8349H21.2393L22.5445 13.5928Z" fill="black"/>
</g>
<defs>
<clipPath id="clip0_1994_696">
<rect width="32.6316" height="31" fill="white" transform="translate(13 14)"/>
</clipPath>
</defs>
</svg>
