<?xml version="1.0" encoding="UTF-8" standalone="no"?><!DOCTYPE svg PUBLIC "-//W3C//DTD SVG 1.1//EN" "http://www.w3.org/Graphics/SVG/1.1/DTD/svg11.dtd"><svg width="512px" height="513px" version="1.1" xmlns="http://www.w3.org/2000/svg" xmlns:xlink="http://www.w3.org/1999/xlink" xml:space="preserve" xmlns:serif="http://www.serif.com/" style="fill-rule:evenodd;clip-rule:evenodd;stroke-linejoin:round;stroke-miterlimit:2;"><g><circle cx="256" cy="256" r="192" style="fill:url(#_Linear1);"/><g><path d="M96.245,246.902c1.338,-23.975 8.11,-48 20.808,-70.235c0.127,-0.222 0.254,-0.444 0.382,-0.665c0.128,-0.221 0.256,-0.442 0.385,-0.662c16.668,-28.561 40.865,-50.054 68.626,-63.416c29.874,-14.38 63.876,-19.344 97.064,-13.568c17.998,3.132 35.757,9.422 52.489,19.082c2.628,1.518 5.197,3.098 7.705,4.74c-32.56,-15.303 -72.022,-3.336 -90.336,28.384l-92.521,160.251c-34.281,-2.498 -61.744,-29.731 -64.602,-63.911Z" style="fill:url(#_Linear2);"/><path d="M343.756,122.199c20.094,13.147 37.514,31.025 50.421,53.139c0.129,0.22 0.257,0.441 0.385,0.662c0.127,0.222 0.255,0.444 0.381,0.665c16.4,28.716 22.915,60.417 20.606,91.141c-2.484,33.06 -15.185,64.99 -36.781,90.844c-11.711,14.021 -26.039,26.255 -42.77,35.915c-2.628,1.517 -5.282,2.952 -7.958,4.303c29.533,-20.547 38.9,-60.706 20.587,-92.426l-92.521,-160.251c19.304,-28.439 56.619,-38.606 87.65,-23.992Z" style="fill:url(#_Linear3);"/><path d="M327.996,398.902c-21.432,10.828 -45.624,16.976 -71.23,17.096c-0.255,0.002 -0.511,0.002 -0.766,0.002c-0.256,0 -0.511,0 -0.766,-0.002c-33.069,-0.154 -63.781,-10.363 -89.233,-27.724c-27.39,-18.682 -48.69,-45.646 -60.282,-77.276c-6.287,-17.152 -9.719,-35.677 -9.719,-54.998c0,-3.034 0.085,-6.049 0.252,-9.043c3.028,35.851 33.122,64.041 69.749,64.041l185.042,0c14.977,30.938 5.125,68.339 -23.047,87.904Z" style="fill:url(#_Linear4);"/></g></g><defs><linearGradient id="_Linear1" x1="0" y1="0" x2="1" y2="0" gradientUnits="userSpaceOnUse" gradientTransform="matrix(384,384,-384,384,64,64.0005)"><stop offset="0" style="stop-color:#90f;stop-opacity:1"/><stop offset="0.5" style="stop-color:#06f;stop-opacity:1"/><stop offset="1" style="stop-color:#00cfe6;stop-opacity:1"/></linearGradient><linearGradient id="_Linear2" x1="0" y1="0" x2="1" y2="0" gradientUnits="userSpaceOnUse" gradientTransform="matrix(95.2596,-164.62,164.62,95.2596,160.847,310.813)"><stop offset="0" style="stop-color:#fff;stop-opacity:0.5"/><stop offset="1" style="stop-color:#fff;stop-opacity:1"/></linearGradient><linearGradient id="_Linear3" x1="0" y1="0" x2="1" y2="0" gradientUnits="userSpaceOnUse" gradientTransform="matrix(94.9344,164.805,-164.805,94.9344,256.107,146.194)"><stop offset="0" style="stop-color:#fff;stop-opacity:0.5"/><stop offset="1" style="stop-color:#fff;stop-opacity:1"/></linearGradient><linearGradient id="_Linear4" x1="0" y1="0" x2="1" y2="0" gradientUnits="userSpaceOnUse" gradientTransform="matrix(190.193,0.187153,-0.187153,190.193,160.848,310.811)"><stop offset="0" style="stop-color:#fff;stop-opacity:1"/><stop offset="1" style="stop-color:#fff;stop-opacity:0.5"/></linearGradient></defs></svg>