<svg xmlns="http://www.w3.org/2000/svg" xmlns:xlink="http://www.w3.org/1999/xlink" width="256" height="32" viewBox="0 0 256 32"><defs><clipPath id="b"><rect width="256" height="32"/></clipPath></defs><g id="a" clip-path="url(#b)"><path d="M61.03,16.459h8.663V.548H61.03ZM54.518.545h5.135V2.6H54.9a2.775,2.775,0,0,0-1.924.671,2.25,2.25,0,0,0-.749,1.762,2.3,2.3,0,0,0,.749,1.785,2.777,2.777,0,0,0,1.924.671h4.749V16.46H49.287V14.4h5.435a2.99,2.99,0,0,0,2.062-.7,2.292,2.292,0,0,0,.8-1.8,2.226,2.226,0,0,0-.8-1.773,3.056,3.056,0,0,0-2.062-.682l-.69.012A4.006,4.006,0,0,1,50,5.5l0-.48V5.007A4.493,4.493,0,0,1,54.519.546h0Zm21.509,0H81V2.6H76.413a2.776,2.776,0,0,0-1.924.671,2.251,2.251,0,0,0-.749,1.762,2.3,2.3,0,0,0,.749,1.785,2.778,2.778,0,0,0,1.924.671H81v4.425a4.578,4.578,0,0,1-4.61,4.547h-5.28V14.4h4.958a2.992,2.992,0,0,0,2.063-.7,2.293,2.293,0,0,0,.8-1.8,2.227,2.227,0,0,0-.8-1.773,3.052,3.052,0,0,0-2.063-.67H71.533L71.5,5.024V5.007A4.493,4.493,0,0,1,76.027.546h0Zm-67.96,0h5.809V2.6H8.229A5.845,5.845,0,0,0,2.374,8.465a6.051,6.051,0,0,0,.784,3.026A5.854,5.854,0,0,0,8.229,14.4h3.434V9.457H6.085v-2h7.791v9h-5.8A8.013,8.013,0,0,1,0,8.5,8.013,8.013,0,0,1,8.067.545ZM30.8,7.932v8.533H28.739V7.959a5.435,5.435,0,0,0-10.869,0v8.506H15.8V.554h7.519A7.43,7.43,0,0,1,30.8,7.933ZM68.159,5.346a2.8,2.8,0,1,1-2.8-2.762A2.78,2.78,0,0,1,68.159,5.346ZM47.595,4.451a8,8,0,0,0-2.992-2.9,8.443,8.443,0,0,0-8.17,0,7.668,7.668,0,0,0-2.992,2.9,7.821,7.821,0,0,0-1.076,4.016,7.828,7.828,0,0,0,1.076,4.016,7.908,7.908,0,0,0,2.992,2.93,8.226,8.226,0,0,0,8.17,0,8.242,8.242,0,0,0,2.992-2.93A7.647,7.647,0,0,0,48.7,8.468,7.647,7.647,0,0,0,47.595,4.451Zm-7.059,6.824A2.772,2.772,0,1,1,43.342,8.5,2.789,2.789,0,0,1,40.536,11.276Z" transform="translate(0 7.5)" fill="#fff"/></g></svg>