<svg xmlns="http://www.w3.org/2000/svg" xmlns:xlink="http://www.w3.org/1999/xlink" width="256" height="32" viewBox="0 0 256 32"><defs><clipPath id="b"><rect width="256" height="32"/></clipPath></defs><g id="a" clip-path="url(#b)"><path d="M20.006,10A10.022,10.022,0,0,1,0,10.841H13.245V9.159H0A10.022,10.022,0,0,1,20.006,10Zm37.15,8.188c3.472,0,5.749-1.871,5.749-4.688,0-2.615-1.714-3.854-4.306-4.283l-2.3-.383c-1.759-.293-2.931-1.059-2.931-2.75,0-1.713,1.308-3.02,3.788-3.02,2.413,0,3.653,1.217,3.788,2.953H62.68c-.135-2.3-1.894-4.35-5.5-4.35-3.562,0-5.524,2.006-5.524,4.485,0,2.637,1.781,3.854,4.216,4.26l2.322.361c1.939.338,3.021,1.127,3.021,2.795,0,1.961-1.6,3.223-4.036,3.223-2.525,0-4.1-1.217-4.239-3.291H51.226C51.362,16.2,53.436,18.188,57.156,18.188Zm-25.6-.316H25.246V2h6.088c2.683,0,4.554,1.578,4.554,4.1a3.335,3.335,0,0,1-2.705,3.449v.068a3.67,3.67,0,0,1,3.2,3.854C36.384,16.2,34.377,17.873,31.559,17.873Zm-.451-8.9c1.917,0,3.089-1.037,3.089-2.66V6.084c0-1.623-1.172-2.637-3.089-2.637H26.937V8.97Zm.2,7.461c2.1,0,3.382-1.15,3.382-2.908V13.3c0-1.826-1.308-2.93-3.4-2.93H26.937V16.43Zm18.728,1.443h-1.8l-1.353-4.305H40.57l-1.353,4.305H37.5L42.712,2h2.052ZM43.816,3.74h-.135l-2.661,8.407h5.434ZM65.445,17.873V2H75.636V3.47h-8.5V8.924H74.96v1.443H67.136v6.041h8.5v1.465Z" transform="translate(0 6)" fill="#fff" fill-rule="evenodd"/></g></svg>