<svg xmlns="http://www.w3.org/2000/svg" xmlns:xlink="http://www.w3.org/1999/xlink" width="564" height="209" viewBox="0 0 564 209"><defs><clipPath id="a"><path d="M0,0H564a0,0,0,0,1,0,0V193a16,16,0,0,1-16,16H16A16,16,0,0,1,0,193V0A0,0,0,0,1,0,0Z" transform="translate(768 4094)" fill="#121419" stroke="#252931" stroke-width="1"/></clipPath><clipPath id="b"><path d="M1140.5-240.5l-8.537,10.053-8.559-2.3-8.537,3.393-8.548.748-8.548-.615-8.548-5.852-8.537,11.2-8.559,5.1-8.537-.369-8.537,7.788-8.559,4.2-8.542,17.708-8.539,4.448-8.54-3.474-8.557,7.009-8.54-17.872-8.54-.5-8.557.974-8.539,3.813-8.54,14.254-8.557,3.279-8.54,6.978-8.539,3.105-8.557-.758-8.54-5.934-8.54-.615-8.557-2.213-8.54-6.754-8.539-6.886-8.557,5.236-8.54,5.934-8.54,6.107-8.557,15.915-8.539,3.668-8.54,4.673-8.54.452-8.557,1.537-8.539-4.253-8.54,4.622-8.557,20.475-8.54,11.427-8.54-12.072-8.557,5.124L764.5-105.517l-8.54,6.128L747.4-118.767l-8.54-4.7-8.539,2.634-8.557,3.556-8.54,15.465-8.54,1.475-8.557-1.281-8.54,3.055-8.539-3-8.557-1.035L653.411-99.7l-8.539,17.821-8.557-17.288-8.54,7.931-8.54-17.205-8.557,15.771-8.54,3.925L593.6-94.254l-8.557-6.415-8.54-.82v54.864h564V-240.5" transform="translate(-576.5 240.5)" fill="none" clip-rule="evenodd"/></clipPath></defs><g transform="translate(-768 -4466)"><g transform="translate(0 372)" clip-path="url(#a)"><g transform="translate(268 -0.297)"><g transform="translate(500 4109.422)" clip-path="url(#b)"><path d="M592.5-38.5v-282" transform="translate(-574.875 232.375)" fill="none" stroke="#242831" stroke-linejoin="round" stroke-width="1"/><path d="M608.5-38.5v-282" transform="translate(-573.25 232.375)" fill="none" stroke="#242831" stroke-linejoin="round" stroke-width="1"/><path d="M624.5-38.5v-282" transform="translate(-571.625 232.375)" fill="none" stroke="#242831" stroke-linejoin="round" stroke-width="1"/><path d="M640.5-38.5v-282" transform="translate(-570 232.375)" fill="none" stroke="#242831" stroke-linejoin="round" stroke-width="1"/><path d="M656.5-38.5v-282" transform="translate(-568.375 232.375)" fill="none" stroke="#242831" stroke-linejoin="round" stroke-width="1"/><path d="M672.5-38.5v-282" transform="translate(-566.75 232.375)" fill="none" stroke="#242831" stroke-linejoin="round" stroke-width="1"/><path d="M688.5-38.5v-282" transform="translate(-565.125 232.375)" fill="none" stroke="#242831" stroke-linejoin="round" stroke-width="1"/><path d="M704.5-38.5v-282" transform="translate(-563.5 232.375)" fill="none" stroke="#242831" stroke-linejoin="round" stroke-width="1"/><path d="M720.5-38.5v-282" transform="translate(-561.875 232.375)" fill="none" stroke="#242831" stroke-linejoin="round" stroke-width="1"/><path d="M736.5-38.5v-282" transform="translate(-560.25 232.375)" fill="none" stroke="#242831" stroke-linejoin="round" stroke-width="1"/><path d="M752.5-38.5v-282" transform="translate(-558.625 232.375)" fill="none" stroke="#242831" stroke-linejoin="round" stroke-width="1"/><path d="M768.5-38.5v-282" transform="translate(-557 232.375)" fill="none" stroke="#242831" stroke-linejoin="round" stroke-width="1"/><path d="M784.5-38.5v-282" transform="translate(-555.375 232.375)" fill="none" stroke="#242831" stroke-linejoin="round" stroke-width="1"/><path d="M800.5-38.5v-282" transform="translate(-553.75 232.375)" fill="none" stroke="#242831" stroke-linejoin="round" stroke-width="1"/><path d="M816.5-38.5v-282" transform="translate(-552.125 232.375)" fill="none" stroke="#242831" stroke-linejoin="round" stroke-width="1"/><path d="M832.5-38.5v-282" transform="translate(-550.5 232.375)" fill="none" stroke="#242831" stroke-linejoin="round" stroke-width="1"/><path d="M848.5-38.5v-282" transform="translate(-548.875 232.375)" fill="none" stroke="#242831" stroke-linejoin="round" stroke-width="1"/><path d="M864.5-38.5v-282" transform="translate(-547.25 232.375)" fill="none" stroke="#242831" stroke-linejoin="round" stroke-width="1"/><path d="M880.5-38.5v-282" transform="translate(-545.625 232.375)" fill="none" stroke="#242831" stroke-linejoin="round" stroke-width="1"/><path d="M896.5-38.5v-282" transform="translate(-544 232.375)" fill="none" stroke="#242831" stroke-linejoin="round" stroke-width="1"/><path d="M912.5-38.5v-282" transform="translate(-542.375 232.375)" fill="none" stroke="#242831" stroke-linejoin="round" stroke-width="1"/><path d="M928.5-38.5v-282" transform="translate(-540.75 232.375)" fill="none" stroke="#242831" stroke-linejoin="round" stroke-width="1"/><path d="M944.5-38.5v-282" transform="translate(-539.125 232.375)" fill="none" stroke="#242831" stroke-linejoin="round" stroke-width="1"/><path d="M960.5-38.5v-282" transform="translate(-537.5 232.375)" fill="none" stroke="#242831" stroke-linejoin="round" stroke-width="1"/><path d="M976.5-38.5v-282" transform="translate(-535.875 232.375)" fill="none" stroke="#242831" stroke-linejoin="round" stroke-width="1"/><path d="M992.5-38.5v-282" transform="translate(-534.25 232.375)" fill="none" stroke="#242831" stroke-linejoin="round" stroke-width="1"/><path d="M1008.5-38.5v-282" transform="translate(-532.625 232.375)" fill="none" stroke="#242831" stroke-linejoin="round" stroke-width="1"/><path d="M1024.5-38.5v-282" transform="translate(-531 232.375)" fill="none" stroke="#242831" stroke-linejoin="round" stroke-width="1"/><path d="M1040.5-38.5v-282" transform="translate(-529.375 232.375)" fill="none" stroke="#242831" stroke-linejoin="round" stroke-width="1"/><path d="M1056.5-38.5v-282" transform="translate(-527.75 232.375)" fill="none" stroke="#242831" stroke-linejoin="round" stroke-width="1"/><path d="M1072.5-38.5v-282" transform="translate(-526.125 232.375)" fill="none" stroke="#242831" stroke-linejoin="round" stroke-width="1"/></g><path d="M1140.5-254.5l-8.537,10.053-8.559-2.3-8.537,3.393-8.548.748-8.548-.615-8.548-5.852-8.537,11.2-8.559,5.1-8.537-.369-8.537,7.788-8.559,4.2-8.542,17.708-8.539,4.448-8.54-3.474-8.557,7.009-8.54-17.872-8.54-.5-8.557.974-8.539,3.813-8.54,14.254-8.557,3.279-8.54,6.978-8.539,3.105-8.557-.758-8.54-5.934-8.54-.615-8.557-2.213-8.54-6.754-8.539-6.886-8.557,5.236-8.54,5.934-8.54,6.107-8.557,15.915-8.539,3.668-8.54,4.673-8.54.452-8.557,1.537-8.539-4.253-8.54,4.622-8.557,20.475-8.54,11.427-8.54-12.072-8.557,5.124L764.5-119.517l-8.54,6.128L747.4-132.767l-8.54-4.7-8.539,2.634-8.557,3.556-8.54,15.465-8.54,1.475-8.557-1.281-8.54,3.055-8.539-3-8.557-1.035-17.081,2.91-8.539,17.821-8.557-17.288-8.54,7.931-8.54-17.205-8.557,15.771-8.54,3.925-8.539-5.513-8.557-6.415-8.54-.82v15.422l8.54.82,8.557,6.415,8.539,5.513,8.54-3.925,8.557-15.771,8.54,17.205,8.54-7.931,8.557,17.288,8.539-17.821,17.081-2.91,8.557,1.035,8.539,3,8.54-3.055,8.557,1.281,8.54-1.475,8.54-15.465,8.557-3.556,8.539-2.634,8.54,4.7,8.557,19.379,8.54-6.128,8.539-16.222,8.557-5.124,8.54,12.072,8.54-11.427,8.557-20.475,8.54-4.622,8.539,4.253,8.557-1.537,8.54-.452,8.54-4.673,8.539-3.668,8.557-15.915,8.54-6.107,8.54-5.934,8.557-5.236,8.539,6.886,8.54,6.754,8.557,2.213,8.54.615,8.54,5.934,8.557.758,8.539-3.105,8.54-6.978,8.557-3.279,8.54-14.254,8.539-3.813,8.557-.974,8.54.5,8.54,17.872,8.557-7.009,8.54,3.474,8.539-4.448,8.542-17.708,8.559-4.2,8.537-7.788,8.537.369,8.559-5.1,8.537-11.2,8.548,5.852,8.548.615,8.548-.748,8.537-3.393,8.559,2.3,8.537-10.053V-254.5" transform="translate(-76.5 4348.5)" fill="#06f" stroke="#06f" stroke-linecap="round" stroke-linejoin="round" stroke-width="2"/><path d="M576.5-101.489l8.54.82,8.557,6.415,8.539,5.513,8.54-3.925,8.557-15.771,8.54,17.205,8.54-7.931,8.557,17.288L653.411-99.7l17.081-2.91,8.557,1.035,8.539,3,8.54-3.055,8.557,1.281,8.54-1.475,8.54-15.465,8.557-3.556,8.539-2.634,8.54,4.7,8.557,19.379,8.54-6.128,8.539-16.222,8.557-5.124,8.54,12.072,8.54-11.427,8.557-20.475,8.54-4.622,8.539,4.253,8.557-1.537,8.54-.452,8.54-4.673,8.539-3.668,8.557-15.915,8.54-6.107,8.54-5.934,8.557-5.236,8.539,6.886,8.54,6.754,8.557,2.213,8.54.615,8.54,5.934,8.557.758,8.539-3.105,8.54-6.978,8.557-3.279,8.54-14.254,8.539-3.813,8.557-.974,8.54.5,8.54,17.872,8.557-7.009,8.54,3.474,8.539-4.448,8.542-17.708,8.559-4.2,8.537-7.788,8.537.369,8.559-5.1,8.537-11.2,8.548,5.852,8.548.615,8.548-.748,8.537-3.393,8.559,2.3L1140.5-240.5" transform="translate(-76.5 4349.922)" fill="none" stroke="#fff" stroke-linecap="round" stroke-linejoin="round" stroke-width="2"/></g></g><g transform="translate(160 3599)"><circle cx="5" cy="5" r="5" transform="translate(648 872)" fill="#06f"/><path d="M1.233,0V-10.182H7.378v1.094H2.466v3.44H7.06v1.094H2.466v3.46H7.457V0ZM9.605,0V-10.182h3.44A4.171,4.171,0,0,1,15-9.777a2.615,2.615,0,0,1,1.134,1.111,3.423,3.423,0,0,1,.368,1.606,3.364,3.364,0,0,1-.368,1.6,2.579,2.579,0,0,1-1.129,1.091,4.2,4.2,0,0,1-1.944.4H10.281V-5.091h2.744a3.073,3.073,0,0,0,1.315-.239,1.519,1.519,0,0,0,.726-.679,2.274,2.274,0,0,0,.226-1.051,2.362,2.362,0,0,0-.229-1.069,1.572,1.572,0,0,0-.731-.708,2.984,2.984,0,0,0-1.327-.251H10.838V0ZM14.4-4.574,16.9,0H15.472L13.006-4.574ZM26.747-7H25.514a2.589,2.589,0,0,0-.38-.935,2.637,2.637,0,0,0-.656-.679,2.851,2.851,0,0,0-.853-.415,3.4,3.4,0,0,0-.974-.139,3.094,3.094,0,0,0-1.673.467,3.228,3.228,0,0,0-1.188,1.377,5.1,5.1,0,0,0-.44,2.232,5.1,5.1,0,0,0,.44,2.232,3.228,3.228,0,0,0,1.188,1.377,3.094,3.094,0,0,0,1.673.467,3.4,3.4,0,0,0,.974-.139,2.851,2.851,0,0,0,.853-.415,2.621,2.621,0,0,0,.656-.681,2.614,2.614,0,0,0,.38-.932h1.233a4.107,4.107,0,0,1-.507,1.4,3.784,3.784,0,0,1-.915,1.047A3.983,3.983,0,0,1,24.1-.085a4.6,4.6,0,0,1-1.449.224A4.267,4.267,0,0,1,20.334-.5a4.366,4.366,0,0,1-1.6-1.81,6.2,6.2,0,0,1-.582-2.784,6.2,6.2,0,0,1,.582-2.784,4.366,4.366,0,0,1,1.6-1.81,4.267,4.267,0,0,1,2.317-.636A4.6,4.6,0,0,1,24.1-10.1a3.983,3.983,0,0,1,1.225.654A3.8,3.8,0,0,1,26.24-8.4,4.083,4.083,0,0,1,26.747-7Zm6.2,1.362v1.094H28.5V-5.638ZM34.523,0V-.895l3.361-3.679q.592-.646.974-1.126a4.164,4.164,0,0,0,.569-.9,2.2,2.2,0,0,0,.186-.892,1.664,1.664,0,0,0-.256-.93,1.694,1.694,0,0,0-.7-.607,2.256,2.256,0,0,0-.994-.214,2.074,2.074,0,0,0-1.022.241,1.673,1.673,0,0,0-.671.674,2.084,2.084,0,0,0-.236,1.014H34.563a2.955,2.955,0,0,1,.413-1.571A2.863,2.863,0,0,1,36.1-9.943a3.372,3.372,0,0,1,1.6-.378,3.252,3.252,0,0,1,1.586.378,2.842,2.842,0,0,1,1.084,1.019A2.678,2.678,0,0,1,40.767-7.5a3.085,3.085,0,0,1-.2,1.1,4.9,4.9,0,0,1-.7,1.188q-.495.654-1.37,1.593L36.213-1.173v.08h4.733V0ZM46.315.139A3.026,3.026,0,0,1,44.4-.475,3.806,3.806,0,0,1,43.193-2.26a8.466,8.466,0,0,1-.418-2.831,8.386,8.386,0,0,1,.42-2.821A3.846,3.846,0,0,1,44.409-9.7a3.005,3.005,0,0,1,1.907-.619,3.005,3.005,0,0,1,1.907.619,3.846,3.846,0,0,1,1.213,1.79,8.386,8.386,0,0,1,.42,2.821,8.466,8.466,0,0,1-.418,2.831A3.806,3.806,0,0,1,48.229-.475,3.026,3.026,0,0,1,46.315.139Zm0-1.094a1.91,1.91,0,0,0,1.73-1.074,6.222,6.222,0,0,0,.616-3.062,7.861,7.861,0,0,0-.281-2.252,3.12,3.12,0,0,0-.805-1.417,1.787,1.787,0,0,0-1.26-.487A1.911,1.911,0,0,0,44.59-8.161a6.242,6.242,0,0,0-.621,3.07,7.874,7.874,0,0,0,.278,2.247,3.065,3.065,0,0,0,.8,1.407A1.8,1.8,0,0,0,46.315-.955ZM55.3-9.088v-1.094H62.94v1.094h-3.2V0H58.506V-9.088ZM66.679.159a3.317,3.317,0,0,1-1.812-.492A3.321,3.321,0,0,1,63.654-1.71a4.636,4.636,0,0,1-.435-2.068,4.692,4.692,0,0,1,.435-2.083,3.314,3.314,0,0,1,1.213-1.382,3.317,3.317,0,0,1,1.812-.492,3.317,3.317,0,0,1,1.812.492A3.314,3.314,0,0,1,69.7-5.862a4.692,4.692,0,0,1,.435,2.083A4.636,4.636,0,0,1,69.7-1.71,3.321,3.321,0,0,1,68.491-.333,3.317,3.317,0,0,1,66.679.159Zm0-1.054a2.014,2.014,0,0,0,1.293-.4,2.374,2.374,0,0,0,.751-1.059,4.054,4.054,0,0,0,.244-1.422,4.1,4.1,0,0,0-.244-1.427,2.4,2.4,0,0,0-.751-1.069,2,2,0,0,0-1.293-.408,2,2,0,0,0-1.293.408,2.4,2.4,0,0,0-.751,1.069,4.1,4.1,0,0,0-.244,1.427,4.054,4.054,0,0,0,.244,1.422A2.374,2.374,0,0,0,65.386-1.3,2.014,2.014,0,0,0,66.679-.895Zm6.344-1.889L73-4.236h.239l3.341-3.4h1.452l-3.56,3.6h-.1ZM71.929,0V-10.182H73.1V0Zm4.852,0L73.8-3.778l.835-.815L78.273,0Zm5.648.159a3.565,3.565,0,0,1-1.9-.49A3.229,3.229,0,0,1,79.3-1.7a4.641,4.641,0,0,1-.43-2.056,4.738,4.738,0,0,1,.43-2.071,3.37,3.37,0,0,1,1.2-1.4,3.231,3.231,0,0,1,1.807-.5,3.62,3.62,0,0,1,1.178.2,2.936,2.936,0,0,1,1.059.644,3.116,3.116,0,0,1,.761,1.176,5,5,0,0,1,.283,1.8v.5H79.7V-4.435H84.4a2.524,2.524,0,0,0-.256-1.153,1.971,1.971,0,0,0-.726-.8,2.045,2.045,0,0,0-1.106-.293,2.105,2.105,0,0,0-1.211.346,2.3,2.3,0,0,0-.783.9,2.629,2.629,0,0,0-.273,1.183v.676a3.238,3.238,0,0,0,.3,1.464,2.118,2.118,0,0,0,.838.91,2.447,2.447,0,0,0,1.248.311,2.517,2.517,0,0,0,.838-.132,1.747,1.747,0,0,0,.649-.4,1.783,1.783,0,0,0,.423-.664l1.134.318a2.493,2.493,0,0,1-.6,1.012,2.888,2.888,0,0,1-1.044.676A3.836,3.836,0,0,1,82.429.159Zm6.125-4.753V0H87.381V-7.636h1.134v1.193h.1a2.2,2.2,0,0,1,.815-.937,2.548,2.548,0,0,1,1.412-.355A2.8,2.8,0,0,1,92.2-7.42a2.16,2.16,0,0,1,.9.955,3.562,3.562,0,0,1,.323,1.613V0H92.253V-4.773a1.988,1.988,0,0,0-.467-1.4,1.662,1.662,0,0,0-1.283-.5,2.033,2.033,0,0,0-1,.244,1.739,1.739,0,0,0-.694.711A2.348,2.348,0,0,0,88.554-4.594Z" transform="translate(666 882)" fill="#646b79"/></g><g transform="translate(160 3624)"><circle cx="5" cy="5" r="5" transform="translate(648 872)" fill="#fff"/><path d="M7.915-10.182H9.148V-3.44a3.553,3.553,0,0,1-.49,1.862A3.441,3.441,0,0,1,7.278-.291,4.411,4.411,0,0,1,5.19.179,4.411,4.411,0,0,1,3.1-.291a3.441,3.441,0,0,1-1.38-1.288,3.553,3.553,0,0,1-.49-1.862v-6.741H2.466V-3.54a2.641,2.641,0,0,0,.328,1.325,2.327,2.327,0,0,0,.937.91A3.017,3.017,0,0,0,5.19-.974a3.032,3.032,0,0,0,1.462-.331,2.307,2.307,0,0,0,.937-.91A2.657,2.657,0,0,0,7.915-3.54Zm4.713,5.588V0H11.455V-7.636h1.134v1.193h.1A2.2,2.2,0,0,1,13.5-7.38a2.548,2.548,0,0,1,1.412-.355,2.8,2.8,0,0,1,1.357.316,2.16,2.16,0,0,1,.9.955A3.562,3.562,0,0,1,17.5-4.852V0H16.327V-4.773a1.988,1.988,0,0,0-.467-1.4,1.662,1.662,0,0,0-1.283-.5,2.033,2.033,0,0,0-1,.244,1.738,1.738,0,0,0-.694.711A2.348,2.348,0,0,0,12.628-4.594Zm9.9,4.753a2.979,2.979,0,0,1-1.685-.485A3.236,3.236,0,0,1,19.7-1.7a4.943,4.943,0,0,1-.413-2.1A4.9,4.9,0,0,1,19.7-5.886a3.208,3.208,0,0,1,1.148-1.367,3.031,3.031,0,0,1,1.7-.482,2.4,2.4,0,0,1,1.181.246,2.1,2.1,0,0,1,.666.557q.231.311.36.51h.1v-3.759h1.173V0H24.9V-1.173h-.139q-.129.209-.368.525a2.14,2.14,0,0,1-.681.562A2.423,2.423,0,0,1,22.531.159ZM22.69-.895a1.914,1.914,0,0,0,1.193-.37,2.287,2.287,0,0,0,.741-1.029,4.226,4.226,0,0,0,.254-1.524,4.148,4.148,0,0,0-.249-1.5,2.2,2.2,0,0,0-.736-1,1.967,1.967,0,0,0-1.2-.36,1.975,1.975,0,0,0-1.24.38,2.285,2.285,0,0,0-.741,1.029,4.074,4.074,0,0,0-.246,1.454,4.152,4.152,0,0,0,.251,1.479,2.378,2.378,0,0,0,.746,1.054A1.925,1.925,0,0,0,22.69-.895ZM31.54.159a3.565,3.565,0,0,1-1.9-.49A3.229,3.229,0,0,1,28.41-1.7a4.64,4.64,0,0,1-.43-2.056,4.738,4.738,0,0,1,.43-2.071,3.37,3.37,0,0,1,1.2-1.4,3.231,3.231,0,0,1,1.807-.5,3.62,3.62,0,0,1,1.178.2,2.936,2.936,0,0,1,1.059.644,3.116,3.116,0,0,1,.761,1.176,5,5,0,0,1,.283,1.8v.5H28.815V-4.435h4.693a2.524,2.524,0,0,0-.256-1.153,1.971,1.971,0,0,0-.726-.8,2.045,2.045,0,0,0-1.106-.293,2.105,2.105,0,0,0-1.211.346,2.3,2.3,0,0,0-.783.9,2.629,2.629,0,0,0-.273,1.183v.676a3.238,3.238,0,0,0,.3,1.464,2.118,2.118,0,0,0,.838.91,2.447,2.447,0,0,0,1.248.311,2.517,2.517,0,0,0,.838-.132,1.747,1.747,0,0,0,.649-.4,1.783,1.783,0,0,0,.423-.664l1.134.318a2.493,2.493,0,0,1-.6,1.012,2.888,2.888,0,0,1-1.044.676A3.836,3.836,0,0,1,31.54.159ZM36.491,0V-7.636h1.134v1.153h.08a1.834,1.834,0,0,1,.756-.92,2.224,2.224,0,0,1,1.233-.353q.129,0,.323,0t.293.015v1.193q-.06-.015-.271-.047a2.943,2.943,0,0,0-.445-.032,2.081,2.081,0,0,0-.992.231,1.764,1.764,0,0,0-.686.636,1.715,1.715,0,0,0-.251.922V0Zm6.384-10.182V0H41.7V-10.182Zm2.9,13.026a2.7,2.7,0,0,1-.532-.047,1.462,1.462,0,0,1-.323-.092l.3-1.034a1.721,1.721,0,0,0,1.069-.007A1.632,1.632,0,0,0,47.031.636l.219-.6L44.426-7.636H45.7l2.108,6.085h.08l2.108-6.085,1.283.02-3.251,8.73a3.3,3.3,0,0,1-.542.967,2.068,2.068,0,0,1-.748.574A2.332,2.332,0,0,1,45.778,2.844ZM52.828,0V-7.636H54V0Zm.6-8.909a.826.826,0,0,1-.589-.234.747.747,0,0,1-.246-.562.747.747,0,0,1,.246-.562.826.826,0,0,1,.589-.234.826.826,0,0,1,.589.234.747.747,0,0,1,.246.562.747.747,0,0,1-.246.562A.826.826,0,0,1,53.425-8.909Zm3.9,4.315V0H56.149V-7.636h1.134v1.193h.1A2.2,2.2,0,0,1,58.2-7.38a2.548,2.548,0,0,1,1.412-.355,2.8,2.8,0,0,1,1.357.316,2.16,2.16,0,0,1,.9.955,3.562,3.562,0,0,1,.323,1.613V0H61.021V-4.773a1.988,1.988,0,0,0-.467-1.4,1.662,1.662,0,0,0-1.283-.5,2.033,2.033,0,0,0-1,.244,1.738,1.738,0,0,0-.694.711A2.348,2.348,0,0,0,57.322-4.594Zm10.1,7.616a4.4,4.4,0,0,1-1.462-.216,3.131,3.131,0,0,1-1.017-.567,3.117,3.117,0,0,1-.644-.748l.935-.656q.159.209.4.48a2.086,2.086,0,0,0,.669.472,2.626,2.626,0,0,0,1.116.2,2.488,2.488,0,0,0,1.526-.447,1.632,1.632,0,0,0,.6-1.4V-1.412h-.1q-.129.209-.365.515a2.079,2.079,0,0,1-.676.542,2.518,2.518,0,0,1-1.186.236,3.173,3.173,0,0,1-1.658-.437A3.048,3.048,0,0,1,64.409-1.83a4.432,4.432,0,0,1-.425-2.028A4.74,4.74,0,0,1,64.4-5.9a3.2,3.2,0,0,1,1.148-1.352,3.043,3.043,0,0,1,1.7-.48,2.432,2.432,0,0,1,1.186.246,2.151,2.151,0,0,1,.676.557q.236.311.365.51h.119V-7.636h1.134V.219a2.683,2.683,0,0,1-.445,1.6,2.586,2.586,0,0,1-1.193.91A4.556,4.556,0,0,1,67.425,3.023Zm-.04-4.2A2.111,2.111,0,0,0,68.578-1.5a2.009,2.009,0,0,0,.741-.93,3.755,3.755,0,0,0,.254-1.452,3.957,3.957,0,0,0-.249-1.457,2.185,2.185,0,0,0-.736-.989,1.977,1.977,0,0,0-1.2-.358,1.984,1.984,0,0,0-1.24.378A2.276,2.276,0,0,0,65.4-5.29a3.885,3.885,0,0,0-.246,1.412,3.662,3.662,0,0,0,.251,1.4,2.115,2.115,0,0,0,.746.955A2.1,2.1,0,0,0,67.385-1.173ZM76.97,0V-10.182h3.44a3.966,3.966,0,0,1,1.961.43A2.725,2.725,0,0,1,83.5-8.591a3.575,3.575,0,0,1,.368,1.631,3.626,3.626,0,0,1-.365,1.636,2.735,2.735,0,0,1-1.126,1.171,3.891,3.891,0,0,1-1.949.435H77.964V-4.812h2.426A2.652,2.652,0,0,0,81.708-5.1a1.7,1.7,0,0,0,.723-.768,2.562,2.562,0,0,0,.226-1.1,2.546,2.546,0,0,0-.226-1.094,1.658,1.658,0,0,0-.728-.758,2.766,2.766,0,0,0-1.332-.276H78.2V0ZM88.723.159a3.317,3.317,0,0,1-1.812-.492A3.321,3.321,0,0,1,85.7-1.71a4.636,4.636,0,0,1-.435-2.068A4.692,4.692,0,0,1,85.7-5.862a3.314,3.314,0,0,1,1.213-1.382,3.317,3.317,0,0,1,1.812-.492,3.317,3.317,0,0,1,1.812.492,3.314,3.314,0,0,1,1.213,1.382,4.692,4.692,0,0,1,.435,2.083,4.635,4.635,0,0,1-.435,2.068A3.321,3.321,0,0,1,90.535-.333,3.317,3.317,0,0,1,88.723.159Zm0-1.054a2.014,2.014,0,0,0,1.293-.4,2.374,2.374,0,0,0,.751-1.059,4.054,4.054,0,0,0,.244-1.422,4.1,4.1,0,0,0-.244-1.427,2.4,2.4,0,0,0-.751-1.069,2,2,0,0,0-1.293-.408,2,2,0,0,0-1.293.408,2.4,2.4,0,0,0-.751,1.069,4.1,4.1,0,0,0-.244,1.427,4.054,4.054,0,0,0,.244,1.422A2.374,2.374,0,0,0,87.43-1.3,2.014,2.014,0,0,0,88.723-.895ZM93.973,0V-7.636h1.134v1.153h.08a1.834,1.834,0,0,1,.756-.92,2.224,2.224,0,0,1,1.233-.353q.129,0,.323,0t.293.015v1.193q-.06-.015-.271-.047a2.943,2.943,0,0,0-.445-.032,2.081,2.081,0,0,0-.992.231,1.764,1.764,0,0,0-.686.636,1.715,1.715,0,0,0-.251.922V0Zm9.009-7.636v.994H99.024v-.994Zm-2.8-1.83h1.173v7.278a1.485,1.485,0,0,0,.147.743.72.72,0,0,0,.378.328,1.454,1.454,0,0,0,.49.082,1.853,1.853,0,0,0,.318-.022l.2-.037.239,1.054a2.582,2.582,0,0,1-.333.092,2.577,2.577,0,0,1-.542.047,2.345,2.345,0,0,1-.972-.214,1.914,1.914,0,0,1-.786-.651,1.86,1.86,0,0,1-.311-1.1Zm7.974,1.83v.994h-4.116v-.994ZM105.268,0V-8.69a1.853,1.853,0,0,1,.308-1.094,1.91,1.91,0,0,1,.8-.656,2.53,2.53,0,0,1,1.039-.219,2.942,2.942,0,0,1,.706.07,2.739,2.739,0,0,1,.408.129l-.338,1.014q-.089-.03-.246-.075a1.536,1.536,0,0,0-.41-.045,1.06,1.06,0,0,0-.838.293,1.273,1.273,0,0,0-.256.86V0Zm7.318.159a3.317,3.317,0,0,1-1.812-.492,3.321,3.321,0,0,1-1.213-1.377,4.636,4.636,0,0,1-.435-2.068,4.692,4.692,0,0,1,.435-2.083,3.314,3.314,0,0,1,1.213-1.382,3.317,3.317,0,0,1,1.812-.492,3.317,3.317,0,0,1,1.812.492,3.314,3.314,0,0,1,1.213,1.382,4.692,4.692,0,0,1,.435,2.083,4.636,4.636,0,0,1-.435,2.068A3.321,3.321,0,0,1,114.4-.333,3.317,3.317,0,0,1,112.587.159Zm0-1.054a2.014,2.014,0,0,0,1.293-.4,2.374,2.374,0,0,0,.751-1.059,4.054,4.054,0,0,0,.244-1.422,4.1,4.1,0,0,0-.244-1.427,2.4,2.4,0,0,0-.751-1.069,2,2,0,0,0-1.293-.408,2,2,0,0,0-1.293.408,2.4,2.4,0,0,0-.751,1.069,4.1,4.1,0,0,0-.244,1.427,4.054,4.054,0,0,0,.244,1.422,2.374,2.374,0,0,0,.751,1.059A2.014,2.014,0,0,0,112.587-.895Zm6.423-9.287V0h-1.173V-10.182ZM121.158,0V-7.636h1.173V0Zm.6-8.909a.826.826,0,0,1-.589-.234.747.747,0,0,1-.246-.562.747.747,0,0,1,.246-.562.826.826,0,0,1,.589-.234.826.826,0,0,1,.589.234.747.747,0,0,1,.246.562.747.747,0,0,1-.246.562A.826.826,0,0,1,121.754-8.909ZM127.581.159a3.317,3.317,0,0,1-1.812-.492,3.321,3.321,0,0,1-1.213-1.377,4.636,4.636,0,0,1-.435-2.068,4.692,4.692,0,0,1,.435-2.083,3.314,3.314,0,0,1,1.213-1.382,3.317,3.317,0,0,1,1.812-.492,3.317,3.317,0,0,1,1.812.492,3.314,3.314,0,0,1,1.213,1.382,4.692,4.692,0,0,1,.435,2.083,4.636,4.636,0,0,1-.435,2.068,3.321,3.321,0,0,1-1.213,1.377A3.317,3.317,0,0,1,127.581.159Zm0-1.054a2.014,2.014,0,0,0,1.293-.4,2.374,2.374,0,0,0,.751-1.059,4.054,4.054,0,0,0,.244-1.422,4.1,4.1,0,0,0-.244-1.427,2.4,2.4,0,0,0-.751-1.069,2,2,0,0,0-1.293-.408,2,2,0,0,0-1.293.408,2.4,2.4,0,0,0-.751,1.069,4.1,4.1,0,0,0-.244,1.427,4.054,4.054,0,0,0,.244,1.422,2.374,2.374,0,0,0,.751,1.059A2.014,2.014,0,0,0,127.581-.895Z" transform="translate(666 882)" fill="#646b79"/></g></g></svg>