<svg xmlns="http://www.w3.org/2000/svg" width="20" height="20" viewBox="0 0 20 20"><rect width="20" height="20" fill="none"/><path d="M11.125,3a8.125,8.125,0,1,0,8.125,8.125A8.163,8.163,0,0,0,11.125,3Zm0,15A6.875,6.875,0,1,1,18,11.125,6.908,6.908,0,0,1,11.125,18Zm1.25-3.125a.628.628,0,0,1-.625.625,1.256,1.256,0,0,1-1.25-1.25V11.125a.625.625,0,0,1,0-1.25,1.256,1.256,0,0,1,1.25,1.25V14.25A.628.628,0,0,1,12.375,14.875Zm-2.5-7.187a.938.938,0,1,1,.938.938A.942.942,0,0,1,9.875,7.688Z" transform="translate(-1.125 -1.125)" fill="#747b89"/></svg>