<?xml version="1.0" encoding="UTF-8" standalone="no"?><!DOCTYPE svg PUBLIC "-//W3C//DTD SVG 1.1//EN" "http://www.w3.org/Graphics/SVG/1.1/DTD/svg11.dtd"><svg width="100%" height="100%" viewBox="0 0 576 128" version="1.1" xmlns="http://www.w3.org/2000/svg" xmlns:xlink="http://www.w3.org/1999/xlink" xml:space="preserve" xmlns:serif="http://www.serif.com/" style="fill-rule:evenodd;clip-rule:evenodd;stroke-linejoin:round;stroke-miterlimit:2;"><rect id="backed-logo-a-white" x="0" y="0" width="576" height="128" style="fill:none;"/><clipPath id="_clip1"><rect x="0" y="0" width="576" height="128"/></clipPath><g clip-path="url(#_clip1)"><g><path d="M393.999,32l0,64l-8,0l0,-64l8,0Zm0,32l32.564,-32l11.413,0l-32.563,32l32.563,32l-11.413,0l-32.564,-32Zm-184,-32c9.935,0 18,8.066 18,18c0,5.211 -2.219,9.908 -5.763,13.196c4.689,3.251 7.763,8.671 7.763,14.804c0,9.935 -8.065,18 -18,18l-36,0l0,-64l34,0Zm-26,56l28,0c5.519,0 10,-4.481 10,-10c0,-5.519 -4.481,-10 -10,-10l-28,0l0,20Zm0,-28l26,0c5.519,0 10,-4.481 10,-10c0,-5.519 -4.481,-10 -10,-10l-26,0l0,20Zm73.944,16l-8.285,20l-8.659,0l26.51,-64l10.981,0l26.509,64l-8.659,0l-8.284,-20l-30.113,0Zm15.056,-36.35l-11.743,28.35l23.486,0l-11.743,-28.35Zm95,45.507c-5.865,6.648 -14.446,10.843 -24,10.843c-17.661,0 -32,-14.339 -32,-32c0,-17.661 14.339,-32 32,-32c9.554,0 18.135,4.195 24,10.843l-5.716,5.617c-4.403,-5.175 -10.963,-8.46 -18.284,-8.46c-13.246,0 -24,10.754 -24,24c0,13.246 10.754,24 24,24c7.321,0 13.881,-3.285 18.284,-8.46l5.716,5.617Zm133.977,-53.157l0,8l-40,0l0,20l24,0l0,8l-24,0l0,20l40,0l0,8l-48,0l0,-64l48,0Zm42.023,0c17.661,0 32,14.339 32,32c0,17.661 -14.339,32 -32,32l-24,0l0,-64l24,0Zm-16,56l16,0c13.246,0 24,-10.754 24,-24c0,-13.246 -10.754,-24 -24,-24l-16,0l0,48Z" style="fill:#fff;"/><g><path d="M0.098,60.361c0.535,-9.59 3.244,-19.2 8.323,-28.094c0.051,-0.089 0.102,-0.178 0.153,-0.266c0.051,-0.089 0.102,-0.177 0.154,-0.265c6.667,-11.424 16.346,-20.021 27.45,-25.366c11.95,-5.752 25.551,-7.738 38.826,-5.428c7.199,1.253 14.303,3.769 20.995,7.633c1.052,0.607 2.079,1.24 3.083,1.896c-13.024,-6.121 -28.809,-1.334 -36.135,11.354l-37.008,64.1c-13.713,-0.999 -24.698,-11.892 -25.841,-25.564Z" style="fill:url(#_Linear2);"/><path d="M99.102,10.48c8.038,5.258 15.006,12.409 20.169,21.255c0.051,0.088 0.103,0.177 0.154,0.265c0.051,0.089 0.102,0.177 0.152,0.266c6.56,11.486 9.166,24.167 8.243,36.456c-0.994,13.225 -6.074,25.996 -14.713,36.338c-4.684,5.608 -10.415,10.502 -17.108,14.366c-1.051,0.607 -2.113,1.18 -3.183,1.721c11.813,-8.219 15.56,-24.282 8.235,-36.97l-37.009,-64.101c7.722,-11.375 22.648,-15.442 35.06,-9.596Z" style="fill:url(#_Linear3);"/><path d="M92.798,121.161c-8.572,4.331 -18.249,6.79 -28.492,6.838c-0.102,0.001 -0.204,0.001 -0.306,0.001c-0.102,0 -0.204,-0 -0.307,-0.001c-13.227,-0.062 -25.512,-4.145 -35.693,-11.089c-10.956,-7.473 -19.476,-18.259 -24.113,-30.911c-2.514,-6.861 -3.887,-14.271 -3.887,-21.999c-0,-1.214 0.034,-2.42 0.101,-3.617c1.211,14.34 13.249,25.616 27.899,25.616l74.017,0c5.991,12.375 2.05,27.335 -9.219,35.162Z" style="fill:url(#_Linear4);"/></g></g></g><defs><linearGradient id="_Linear2" x1="0" y1="0" x2="1" y2="0" gradientUnits="userSpaceOnUse" gradientTransform="matrix(38.1039,-65.8481,65.8481,38.1039,25.9389,85.9253)"><stop offset="0" style="stop-color:#fff;stop-opacity:0.5"/><stop offset="1" style="stop-color:#fff;stop-opacity:1"/></linearGradient><linearGradient id="_Linear3" x1="0" y1="0" x2="1" y2="0" gradientUnits="userSpaceOnUse" gradientTransform="matrix(37.9738,65.9222,-65.9222,37.9738,64.0427,20.0772)"><stop offset="0" style="stop-color:#fff;stop-opacity:0.5"/><stop offset="1" style="stop-color:#fff;stop-opacity:1"/></linearGradient><linearGradient id="_Linear4" x1="0" y1="0" x2="1" y2="0" gradientUnits="userSpaceOnUse" gradientTransform="matrix(76.0772,0.0748611,-0.0748611,76.0772,25.9393,85.9246)"><stop offset="0" style="stop-color:#fff;stop-opacity:1"/><stop offset="1" style="stop-color:#fff;stop-opacity:0.5"/></linearGradient></defs></svg>