<svg clip-rule="evenodd" fill-rule="evenodd" height="48" stroke-linejoin="round" stroke-miterlimit="2" width="142" xmlns="http://www.w3.org/2000/svg" xmlns:xlink="http://www.w3.org/1999/xlink"><clipPath id="a"><path clip-rule="evenodd" d="m0 0h142v48h-142z"/></clipPath><path d="m0 0h142v48h-142z" fill="none"/><g clip-path="url(#a)"><path d="m4.25 36.604c2.936.201 6.067 1.139 9.024 2.856 2.956 1.718 5.325 3.973 6.954 6.425-3.167-.334-6.228-1.333-8.981-2.932-2.754-1.6-5.138-3.763-6.997-6.349zm12.997-3.982c5.695 3.31 9.487 8.249 10.378 12.819-1.434.327-2.897.514-4.368.559-1.822-3.374-4.801-6.496-8.695-8.758-3.894-2.261-8.079-3.302-11.912-3.214-.689-1.299-1.251-2.661-1.677-4.069 4.412-1.49 10.577-.646 16.274 2.663zm27.145-13.433c-2.931-3.942-7.205-7.736-12.511-10.818-5.307-3.083-10.718-4.913-15.592-5.51 2.917-.83 5.973-1.063 8.983-.686s5.913 1.357 8.536 2.881 4.913 3.561 6.731 5.989 3.129 5.198 3.853 8.144zm-7.092 10.804c2.191 3.643 2.698 7.025 1.388 9.282-.008.014-.013.029-.022.044-.307.311-.625.61-.949.899-.278-1.949-.98-3.988-2.104-6.06-2.509-4.598-6.872-8.862-12.282-12.006-5.41-3.143-11.273-4.818-16.511-4.72-2.356.045-4.475.447-6.303 1.169.092-.425.194-.849.311-1.272.009-.013.019-.026.027-.039 1.309-2.255 4.499-3.49 8.75-3.39 4.831.116 10.394 1.863 15.66 4.922 5.265 3.059 9.539 7.027 12.035 11.171zm-16.041-4.276c8.065 4.685 13.117 12.062 12.4 17.404-.894.499-1.82.937-2.773 1.311-.291-1.285-.725-2.532-1.295-3.72-2.059-4.335-5.836-8.262-10.626-11.046-4.791-2.785-10.069-4.119-14.858-3.758-1.313.094-2.612.335-3.873.717-.147-1.013-.226-2.034-.234-3.058 4.285-3.269 13.195-2.535 21.259 2.15zm20.188-2.66c1.922 3.156 2.562 6.086 1.827 8.212-2.143-5.869-7.696-12.062-15.573-16.638-7.878-4.576-16.006-6.331-22.167-5.287 1.484-1.692 4.346-2.588 8.041-2.481 4.847.142 10.431 1.917 15.734 4.996s9.615 7.058 12.138 11.198zm22.716-7.432h3.762v12.55c0 1.161-.261 2.168-.782 3.024-.516.855-1.234 1.514-2.153 1.977-.92.463-1.99.695-3.208.695-1.085 0-2.069-.191-2.954-.572-.878-.386-1.576-.972-2.092-1.757-.515-.791-.77-1.785-.764-2.98h3.788c.012.475.108.882.29 1.222.188.334.443.592.765.773.328.176.715.264 1.16.264.469 0 .864-.1 1.186-.299.328-.205.578-.504.747-.896.171-.393.255-.876.255-1.451zm15.495 12.252v-7.752h3.744v13.5h-3.594v-2.453h-.141c-.305.791-.811 1.427-1.52 1.908-.703.48-1.562.72-2.575.72-.903 0-1.697-.205-2.382-.615-.686-.41-1.222-.993-1.609-1.749-.381-.756-.574-1.661-.58-2.716v-8.595h3.744v7.927c.006.797.22 1.427.642 1.89s.987.694 1.696.694c.451 0 .873-.102 1.266-.307.393-.211.709-.522.949-.932.246-.41.367-.917.36-1.52zm6.74 10.81v-18.562h3.691v2.267h.167c.164-.363.401-.732.712-1.107.316-.381.726-.697 1.23-.949.51-.258 1.143-.387 1.899-.387.984 0 1.892.258 2.724.774.832.509 1.497 1.28 1.996 2.311.497 1.026.746 2.312.746 3.858 0 1.506-.243 2.778-.729 3.815-.481 1.031-1.137 1.813-1.969 2.347-.826.527-1.752.791-2.777.791-.727 0-1.345-.12-1.855-.361-.504-.24-.917-.542-1.239-.905-.322-.369-.568-.741-.738-1.116h-.114v7.224zm3.665-11.812c0 .803.111 1.503.333 2.1.223.598.546 1.064.967 1.398.422.328.935.492 1.538.492.61 0 1.125-.167 1.547-.501.422-.34.741-.808.958-1.406.223-.604.334-1.298.334-2.083 0-.779-.108-1.465-.325-2.057s-.536-1.054-.958-1.388-.94-.501-1.556-.501c-.609 0-1.124.161-1.547.483-.416.322-.735.779-.958 1.371-.222.592-.333 1.289-.333 2.092zm11.996 6.75v-13.5h3.745v13.5zm1.881-15.24c-.556 0-1.034-.185-1.432-.554-.393-.375-.589-.823-.589-1.345 0-.516.196-.958.589-1.327.398-.375.876-.563 1.432-.563.557 0 1.032.188 1.424.563.399.369.598.811.598 1.327 0 .522-.199.97-.598 1.345-.392.369-.867.554-1.424.554zm5.759 4.552h-1.845v-2.812h1.845v-3.235h3.744v3.235h2.54v2.812h-2.54v6.539c0 .346.053.615.159.809.105.187.252.319.439.395.193.076.416.114.668.114.176 0 .352-.014.527-.043.176-.036.311-.062.405-.08l.588 2.787c-.187.058-.45.125-.79.202-.34.082-.753.132-1.24.149-.902.035-1.693-.085-2.373-.36-.673-.276-1.198-.703-1.573-1.283-.375-.581-.56-1.313-.554-2.198zm11.734 4.896v.009c0 .668.123 1.245.369 1.731.252.486.606.861 1.063 1.125s1 .396 1.627.396c.415 0 .796-.059 1.142-.176s.642-.293.888-.527c.245-.235.433-.522.562-.862l3.463.229c-.176.832-.536 1.558-1.081 2.179-.539.616-1.237 1.096-2.092 1.442-.85.34-1.831.51-2.944.51-1.389 0-2.584-.282-3.586-.844-.996-.569-1.764-1.371-2.303-2.408-.539-1.043-.809-2.277-.809-3.701 0-1.388.27-2.607.809-3.656s1.298-1.866 2.277-2.452c.984-.586 2.138-.879 3.462-.879.891 0 1.72.144 2.487.431.774.281 1.448.706 2.022 1.274.58.569 1.031 1.283 1.354 2.145.322.855.483 1.857.483 3.006v1.028zm.004-2.32h5.665c0-.539-.118-1.017-.352-1.433s-.559-.741-.976-.976c-.41-.24-.887-.36-1.432-.36-.569 0-1.073.132-1.512.396-.433.257-.773.606-1.019 1.045-.227.4-.352.843-.374 1.328zm11.632 8.112v-13.5h3.63v2.355h.141c.246-.838.659-1.471 1.239-1.898.58-.434 1.248-.651 2.004-.651.188 0 .39.012.607.035.216.024.407.056.571.097v3.322c-.176-.052-.419-.099-.729-.14-.311-.041-.595-.062-.853-.062-.551 0-1.043.12-1.477.361-.428.234-.767.562-1.019.984-.246.422-.369.908-.369 1.459v7.638z" fill="#fff"/></g></svg>