<svg clip-rule="evenodd" fill-rule="evenodd" height="48" stroke-linejoin="round" stroke-miterlimit="2" width="176" xmlns="http://www.w3.org/2000/svg" xmlns:xlink="http://www.w3.org/1999/xlink"><clipPath id="a"><path clip-rule="evenodd" d="m0 0h176v48h-176z"/></clipPath><path d="m0 0h176v48h-176z" fill="none"/><g clip-path="url(#a)"><path d="m60.189 29.626-2.159-3.748h-3.156v3.748h-1.859v-11.26h5.6c.682-.007 1.357.18 1.942.533.584.352 1.064.854 1.386 1.461.323.608.465 1.29.428 1.972-.038.682-.263 1.349-.652 1.912-.405.599-.975 1.064-1.642 1.342l2.294 4.04zm-1.581-9.348h-3.734v3.741h3.741c.247 0 .487-.053.712-.15.225-.098.427-.24.592-.42.255-.262.435-.592.503-.96.067-.359.03-.734-.105-1.079-.143-.337-.375-.63-.682-.84-.308-.21-.66-.322-1.027-.322zm19.91-1.912 5.593 11.26h-2.084l-3.516-7.054-3.524 7.054h-2.084zm23.629 0-4.595 5.915v5.345h-1.859v-5.255l-4.678-6.005h2.384l3.178 4.153 3.194-4.153zm9.521 0h3.733c1.484.008 2.901.608 3.943 1.665 1.05 1.049 1.642 2.481 1.649 3.965-.007 1.492-.599 2.916-1.649 3.973-1.049 1.057-2.466 1.65-3.951 1.657h-3.725zm3.733 9.349c.989 0 1.934-.398 2.631-1.102.697-.705 1.095-1.657 1.095-2.647-.015-.989-.405-1.941-1.102-2.638-.697-.698-1.642-1.102-2.624-1.11h-1.882v7.497zm18.029-9.349v11.26h-1.859v-11.26zm19.896 6.56c.007.622-.105 1.237-.345 1.806-.233.57-.585 1.087-1.035 1.515-.652.659-1.484 1.102-2.391 1.282s-1.844.09-2.699-.27c-.854-.353-1.582-.96-2.091-1.732-.51-.772-.78-1.679-.78-2.609v-6.552h1.859v6.552c0 .75.292 1.462.825 1.987.525.525 1.237.825 1.979.825s1.454-.3 1.979-.825.817-1.245.817-1.987v-6.552h1.874v6.56zm12.421 4.7h-1.851v-11.26l5.6 5.63 5.622-5.63v11.26h-1.889v-6.732l-3.733 3.756-3.749-3.756zm-126.548-11.612 2.167-1.244v19.228l-20.683 12.002-20.683-12.002v-23.996l20.683-12.002 16.387 9.513-2.151 1.244-14.236-8.268-18.539 10.765v21.5l18.531 10.75 18.524-10.75zm-23.704 16.755h-3.096v-10.45h10.33c.975-.008 1.912-.405 2.602-1.11.689-.697 1.072-1.642 1.079-2.624.008-.487-.09-.967-.277-1.416-.188-.45-.465-.855-.81-1.192-.337-.345-.742-.623-1.184-.81-.443-.187-.922-.285-1.41-.277h-10.33v-3.179h10.338c1.806.008 3.546.742 4.82 2.024 1.282 1.29 2.002 3.029 2.017 4.85.007 1.395-.413 2.752-1.207 3.891-.735 1.087-1.769 1.942-2.976 2.451-1.2.383-2.444.57-3.696.563h-6.2zm14.004-.263h-3.614l-2.788-4.887c1.102-.068 2.189-.293 3.231-.668zm7.541-19.97v-2.527l2.137-1.244 2.136 1.244v2.527l-2.136 1.192z" fill="#fff"/></g></svg>