<svg clip-rule="evenodd" fill-rule="evenodd" height="48" stroke-linejoin="round" stroke-miterlimit="2" width="135" xmlns="http://www.w3.org/2000/svg" xmlns:xlink="http://www.w3.org/1999/xlink"><clipPath id="a"><path clip-rule="evenodd" d="m0 0h135v48h-135z"/></clipPath><path d="m0 0h135v48h-135z" fill="none"/><g clip-path="url(#a)"><path d="m84.767 31.364h-.225c-.225 0-.41-.183-.41-.407v-13.498c0-.223.185-.407.41-.407h.225c.225 0 .408.184.408.407v13.498c0 .224-.183.407-.408.407zm-27.675 0c-.225 0-.41-.183-.41-.407v-13.498c0-.223.185-.407.41-.407h.225c.225 0 .408.184.408.407v13.498c0 .224-.183.407-.408.407zm17.651-13.802-.02 13.272c0 .286-.246.53-.532.53s-.532-.244-.532-.53v-11.438l-7.507 11.724-.041.041-.061.061c-.02.021-.041.021-.061.04 0 .021-.021.021-.021.021-.02.02-.041.04-.061.04-.021.021-.021.021-.041.021-.02.02-.041.02-.061.02h-.205c-.02-.02-.02-.02-.041-.02-.02 0-.041-.021-.061-.021 0 0-.021-.02-.041-.02-.021 0-.021-.02-.041-.02l-.082-.081c0-.021-.02-.021-.02-.041-.021 0-.021-.02-.041-.041l-4.48-6.993c-.163-.245-.082-.572.164-.734.245-.163.573-.082.736.162l4.03 6.281 8.038-12.56.041-.04c0-.021 0-.021.021-.041 0-.02.02-.02.041-.041.02 0 .02-.02.041-.02.02-.021.041-.021.061-.041 0-.02.02-.02.02-.02.021 0 .062-.021.082-.021h.225c.041 0 .062.021.082.021h.021c.02.02.06.02.081.04h.021c.02.021.061.041.082.062.102.101.143.223.163.346zm33.668 8.726c-.225 0-.409-.184-.409-.429v-8.42c0-.224.184-.407.409-.407h.246c.225 0 .41.183.41.407v8.441c0 .224-.185.408-.41.408zm.512 4.18c.204.203.204.53-.021.734-.204.203-.552.203-.756 0l-12.396-12.356v11.988c0 .286-.245.53-.532.53-.286 0-.532-.244-.532-.53v-13.252c0-.143.062-.286.164-.387.205-.204.552-.204.757 0zm-59.707.121c.143.265.041.571-.266.693-.266.143-.573.041-.716-.224l-1.861-3.609h-9l-1.862 3.609c-.143.265-.45.367-.715.224-.266-.142-.369-.448-.225-.714l6.852-13.252c.123-.265.45-.367.716-.224.266.142.368.448.225.714l-4.439 8.583h7.916l-.205-.408c-.143-.265-.04-.57.225-.713.266-.143.573-.041.716.224zm-22.336-.182c.245.162.306.489.143.713v.02c-.164.245-.491.306-.737.142l-10.002-6.646v6.178c0 .286-.245.53-.532.53-.286 0-.531-.244-.531-.53v-13.253c0-.285.245-.529.531-.529.287 0 .532.244.532.529v5.811zm-6.873-8.626c-.123-.204-.061-.448.123-.57l6.177-4.119c.185-.122.45-.061.573.123l.122.182c.124.184.062.45-.122.571l-6.178 4.119c-.184.122-.45.061-.572-.122zm113.727.123c.308-.307.798-.143.942.223.122.572.183 1.184.183 1.836 0 1.284-.225 2.385-.695 3.323-.471.938-1.105 1.713-1.922 2.325-.819.611-1.781 1.059-2.885 1.345-1.105.285-2.29.428-3.58.428-1.288 0-2.475-.143-3.6-.428-1.104-.286-2.066-.734-2.904-1.345-.839-.612-1.472-1.387-1.943-2.325-.471-.918-.696-2.039-.696-3.323 0-.857.102-1.632.327-2.325.206-.693.512-1.325.9-1.875.39-.55.86-1.02 1.412-1.427.553-.388 1.166-.734 1.841-1 .675-.264 1.412-.468 2.188-.591.778-.122 1.596-.184 2.455-.184 1.269 0 2.475.143 3.579.429.287.061.369.428.165.632l-.124.122c-.101.103-.245.143-.368.103-.02 0-.061-.021-.102-.021-.981-.265-2.046-.388-3.171-.388-.756 0-1.472.041-2.168.164-.695.122-1.35.285-1.942.529-.594.245-1.146.551-1.637.898-.491.346-.9.775-1.247 1.264-.349.489-.615 1.04-.799 1.652-.184.611-.286 1.304-.286 2.059 0 1.121.204 2.12.614 2.936.409.815.961 1.508 1.697 2.039.716.529 1.575.916 2.558 1.182.981.265 2.045.387 3.191.387 1.144 0 2.188-.122 3.169-.387.982-.245 1.841-.653 2.557-1.182.716-.531 1.289-1.224 1.699-2.039.409-.816.613-1.795.613-2.936 0-.591-.062-1.122-.163-1.611-.041-.164.019-.367.142-.489zm-1.513-2.325c-.294 0-.532-.237-.532-.53 0-.292.238-.529.532-.529s.531.237.531.529c0 .293-.237.53-.531.53zm-94.746 15.924c.205 0 .368.102.471.285.081.164.081.367-.041.53-3.948 5.384-10.288 8.584-16.937 8.584-5.645 0-10.963-2.222-14.932-6.239-3.968-4.016-6.115-9.338-6.034-14.965.082-5.403 2.23-10.48 6.034-14.353 3.825-3.874 8.919-6.097 14.319-6.239 6.893-.184 13.438 3.017 17.529 8.583.102.163.123.367.041.531-.082.162-.266.264-.45.264-.164 0-.307-.081-.408-.203-3.765-5.118-9.778-8.176-16.119-8.176-5.482 0-10.575 2.181-14.38 6.116-3.804 3.935-5.768 9.094-5.563 14.558.388 10.296 8.795 18.675 19.125 19.083 6.668.265 12.988-2.773 16.937-8.155.101-.123.244-.204.408-.204z" fill="#fff"/></g></svg>