<svg clip-rule="evenodd" fill-rule="evenodd" height="48" stroke-linejoin="round" stroke-miterlimit="2" width="95" xmlns="http://www.w3.org/2000/svg"><path d="m0 0h95v48h-95z" fill="none"/><path d="m67.494 29.804v-25.054h4.89v25.054zm-34.414 7.446h-4.856v-10.277l-7.529-14.782h5.312l4.68 10.102 4.61-10.102h5.312l-7.529 14.782zm-33.08-.001v-25.054h10.067c4.89 0 7.744 2.743 7.744 7.037 0 2.779-1.831 4.574-3.095 5.171 1.514.703 3.45 2.288 3.45 5.633-.009 4.68-3.209 7.213-7.678 7.213zm4.895-10.523v6.159h5.101c2.217 0 3.271-1.409 3.271-3.095 0-1.69-1.054-3.064-3.271-3.064zm-.004-10.172v5.773h4.785c2.076 0 3.235-1.163 3.235-2.884.005-1.726-1.159-2.889-3.235-2.889zm49.582 20.696h-10.488v-25.054h10.066c4.891 0 7.74 2.743 7.74 7.037 0 2.779-1.831 4.575-3.095 5.172 1.514.702 3.45 2.287 3.45 5.632 0 4.68-3.204 7.213-7.673 7.213zm-.492-10.523h-5.101v6.159h5.101c2.217 0 3.27-1.409 3.27-3.095.005-1.69-1.053-3.064-3.27-3.064zm-.316-10.172h-4.785v5.773h4.785c2.076 0 3.235-1.163 3.235-2.884.005-1.726-1.159-2.889-3.235-2.889zm34.484 20.691h-4.891v-20.691h-6.545v-4.364h17.982v4.364h-6.546z" fill="#fff"/></svg>