<svg clip-rule="evenodd" fill-rule="evenodd" height="48" stroke-linejoin="round" stroke-miterlimit="2" width="144" xmlns="http://www.w3.org/2000/svg"><path d="m0 0h144v48h-144z" fill="none"/><path d="m125.715 34.395v-20.789h3.562v2.664c1.174-2.019 3.643-3.27 6.436-3.27 4.574 0 7.893 2.422 7.893 8.679v12.716h-3.643v-12.191c0-3.876-1.902-5.773-5.06-5.773-3.562 0-5.545 2.422-5.545 5.894v12.07zm-12.548.605c-6.436 0-10.525-4.319-10.525-11.101 0-6.499 4.169-10.899 10.2-10.899 5.992 0 10.201 4.037 10.201 9.809 0 1.655 0 2.019-.081 2.382h-16.515c.243 4.077 2.793 6.58 6.76 6.58 2.793 0 4.736-1.211 5.707-3.432h3.765c-1.094 4.158-4.615 6.661-9.512 6.661zm-6.72-12.796h12.751c-.162-3.714-2.591-6.015-6.356-6.015-3.602 0-5.991 2.22-6.395 6.015zm-35.896 12.796c-4.21 0-7.286-2.261-7.286-6.176 0-3.916 2.793-5.692 6.072-6.297l5.1-.969c1.74-.323 2.752-.767 2.752-2.341 0-1.817-1.538-3.028-4.614-3.028-2.51 0-4.696 1.009-4.979 3.31h-3.764c.242-4.077 3.966-6.499 8.783-6.499 5.829 0 8.217 2.906 8.217 6.338v10.657c0 .968.446 1.453 1.255 1.453.688 0 1.093-.162 1.457-.404v2.947c-.566.484-1.538.807-2.712.807-1.7 0-3.157-1.09-3.521-2.866-.972 1.373-2.996 3.068-6.76 3.068zm-3.522-6.297c0 2.099 1.781 3.108 4.17 3.108 3.359 0 5.99-1.897 5.99-4.844v-3.35c-.404.444-1.659.807-3.157 1.089l-3.4.646c-2.429.444-3.603 1.494-3.603 3.351zm-14.708 5.692v-20.789h3.562v3.471c1.012-2.462 2.834-3.916 5.707-3.916.608 0 1.215.122 1.539.202v3.714c-.324-.081-1.012-.202-1.7-.202-3.563 0-5.465 2.786-5.465 7.226v10.294zm-6.384-20.789h4.696l-8.42 8.234 8.865 12.555h-4.25l-7.084-10.052-3.481 3.31v6.742h-3.643v-20.789h3.643v9.526zm52.612 0h4.696l-8.419 8.234 8.864 12.555h-4.25l-7.084-10.052-3.481 3.31v6.742h-3.643v-20.789h3.643v9.526zm-84.296-.606c7.658 0 13.865 6.269 13.865 14.002v6c0 1.104-.885 1.998-1.978 1.998-1.096 0-1.982-.894-1.982-1.998v-6c0-1.108-.885-2.002-1.978-2.002-1.1 0-1.985.894-1.985 2.002v6c0 1.104-.886 1.998-1.979 1.998s-1.978-.894-1.978-1.998v-6c0-1.108-.889-2.002-1.985-2.002-1.093 0-1.979.894-1.979 2.002v6c0 1.104-.885 1.998-1.981 1.998-1.093 0-1.979-.894-1.979-1.998v-6c0-1.108-.885-2.002-1.978-2.002-1.096 0-1.979.894-1.979 2.002v6c0 1.104-.892 1.998-1.985 1.998s-1.978-.894-1.978-1.998v-6c0-7.733 6.204-14.002 13.859-14.002z" fill="#fff"/></svg>