<svg clip-rule="evenodd" fill-rule="evenodd" height="48" stroke-linejoin="round" stroke-miterlimit="2" width="117" xmlns="http://www.w3.org/2000/svg"><path d="m0 0h117v48h-117z" fill="none"/><path d="m106.724 27.135v-6.377c2.119.196 3.978.916 5.087 1.733v2.355l-5.022 3.564c-.033-.425-.065-.851-.065-1.275zm-5.413 1.504c0 6.147 3.717 9.352 7.891 9.352 2.576 0 4.174-1.178 7.793-4.774v-2.289c-1.141 1.177-2.282 2.125-3.619 3.073-3-.13-5.054-1.373-6.033-3.564l9.652-6.899v-4.153c-2.119-1.635-4.891-2.747-7.662-2.747-1.924 1.308-4.076 3.433-5.707 5.265-1.728 1.929-2.315 3.597-2.315 6.736zm-24.325 1.046 5.38-3.826v7.946h-1.108c-2.707 0-4.174-1.471-4.272-4.12zm-4.761-5.265h4.63v-3.793c2.772-.196 4.5.818 5.511 2.191v.621l-9.978 7.129c-.88 4.414 2.055 7.423 4.989 7.423 1.565 0 3.424-.883 4.663-2.714h.326v2.387h6.359c-.75-.687-1.174-1.341-1.174-4.775l-.033-12.098c-1.532-3.107-4.695-4.153-6.26-4.153-1.729 0-5.707 2.976-7.109 3.989-1.565 1.145-1.924 2.322-1.924 3.793zm-7.988-9.123h.13c.815 0 1.402.523 1.402 2.322v14.976c0 3.466-.424 4.251-1.174 5.069h7.533c-.751-.818-1.174-1.603-1.174-5.069v-22.301h-.392zm-12.913 8.437h3.652v8.861c0 3.466-.424 4.251-1.174 5.069h7.858c-.945-.818-1.499-1.603-1.499-5.069v-8.861h3.652v-3.924h-3.881l-2.576-4.938h3.913c.946 0 1.565-.196 2.12-.654l4.956-3.924h-8.152l-5.217 4.709v5.167zm-7.174-8.437h.131c.815 0 1.402.523 1.402 2.322v14.976c0 3.466-.424 4.251-1.174 5.069h7.532c-.75-.818-1.173-1.603-1.173-5.069v-22.301h-.392zm-11.673 12.034v-6.573c3.75-.131 6.554 1.864 6.554 6.54v6.573c-3.88.13-6.554-1.864-6.554-6.54zm-5.445 1.308c0 6.703 4.336 9.548 9.423 9.352 1.891-1.341 4.076-3.467 5.706-5.265 1.729-1.929 2.315-3.597 2.315-6.736 0-6.703-4.336-9.548-9.423-9.352-1.859 1.373-4.076 3.466-5.706 5.265-1.729 1.929-2.315 3.597-2.315 6.736zm-13.793-3.532 1.923-1.864 3.587 1.177c2.348.785 3.522 2.224 3.522 4.251 0 1.537-.587 2.551-1.761 3.859l-.359.392.131-.915c.522-3.336-.457-4.775-3.685-5.821zm-4.826-11.412 9.782 3.27-2.12 2.027-5.086-1.7c-1.761-.589-2.348-1.537-2.576-3.532zm-.587 16.611 2.217-2.125 4.174 1.373c2.185.72 2.934 1.668 2.706 4.055zm-2.804-9.483c0-.621.326-1.209.88-1.7.587.85 1.598 1.602 3.195 2.125l3.457 1.145-1.924 1.864-3.391-1.112c-1.565-.523-2.217-1.308-2.217-2.322zm-5.022 13.669 1.435 1.537 2.315-2.126 11.51 4.088c7.174-4.774 11.021-8.012 11.021-12.001 0-2.649-1.565-4.12-5.021-5.265l-2.608-.883 7.14-6.866-1.434-1.537-2.12 1.864-10.01-3.303c-3.098 1.014-7.011 3.989-7.011 6.965 0 .327.033.654.131 1.014-2.576 1.471-3.62 2.844-3.62 4.545 0 1.602.848 3.204 3.554 4.087l2.152.72zm90.225 3.172h8.184c-1.141-.752-1.826-1.505-1.826-5.102v-10.594l2.674.687c1.076.261 1.565.163 2.445-.752l4.696-4.938h-6.261l-3.358 3.499h-.294l-.554-3.826h-.391l-7.174 6.507h2.282c.424 0 .75.327.75.752v8.665c0 3.597-.424 4.35-1.173 5.102z" fill="#fff" fill-rule="nonzero"/></svg>